<?xml version="1.0" standalone="no"?>
<!DOCTYPE svg PUBLIC "-//W3C//DTD SVG 20010904//EN"
 "http://www.w3.org/TR/2001/REC-SVG-20010904/DTD/svg10.dtd">
<svg version="1.0" xmlns="http://www.w3.org/2000/svg"
 width="700.000000pt" height="700.000000pt" viewBox="0 0 700.000000 700.000000"
 preserveAspectRatio="xMidYMid meet">
<metadata>
Created by potrace 1.14, written by Peter Selinger 2001-2017
</metadata>
<g transform="translate(0.000000,700.000000) scale(0.100000,-0.100000)"
fill="#000000" stroke="none">
<path d="M3320 6599 c-91 -50 -194 -107 -230 -127 -36 -20 -67 -37 -70 -37 -3
0 -16 -8 -30 -16 -14 -9 -54 -32 -90 -51 -36 -19 -92 -50 -125 -68 -33 -18
-134 -73 -225 -123 -91 -49 -187 -102 -215 -117 -63 -35 -428 -235 -515 -282
-149 -81 -719 -393 -765 -418 -27 -15 -90 -49 -140 -75 -49 -26 -97 -54 -106
-61 -14 -13 -15 -179 -14 -1723 0 -1458 3 -1711 15 -1726 8 -9 61 -41 119 -71
105 -53 241 -125 356 -189 33 -18 89 -48 125 -68 36 -19 142 -76 235 -127 94
-51 208 -113 255 -138 47 -25 120 -65 162 -89 43 -23 79 -43 82 -43 2 0 33
-16 68 -36 34 -20 106 -59 158 -86 52 -28 109 -59 125 -68 17 -10 64 -35 105
-58 223 -119 770 -418 800 -437 19 -12 51 -28 70 -35 38 -13 48 -9 230 92 25
14 160 87 300 163 140 75 269 145 285 155 17 9 71 39 120 65 50 27 133 72 185
100 52 29 131 71 175 95 44 24 101 56 126 70 26 14 80 43 120 64 40 21 87 46
104 56 54 30 138 76 220 120 44 24 103 55 130 70 28 15 79 43 115 62 213 116
498 270 572 311 21 11 41 31 45 46 5 14 8 788 8 1720 l0 1694 -40 24 c-22 13
-67 37 -100 54 -33 18 -94 51 -135 74 -41 23 -104 58 -140 77 -36 20 -207 113
-380 208 -173 95 -344 189 -380 208 -36 19 -173 95 -305 167 -132 73 -271 149
-310 170 -63 34 -501 274 -615 337 -216 120 -289 158 -301 158 -8 0 -88 -41
-179 -91z m277 -108 c49 -26 117 -64 153 -83 36 -19 88 -48 115 -63 113 -62
271 -149 450 -247 105 -58 226 -124 270 -148 44 -24 114 -62 155 -85 41 -23
104 -58 140 -77 105 -57 180 -98 260 -143 41 -23 102 -57 135 -74 33 -18 78
-42 100 -55 22 -12 72 -39 110 -60 65 -36 259 -142 489 -269 l100 -55 0 -1133
c1 -624 -1 -1142 -3 -1151 -3 -17 -26 -18 -313 -18 -244 0 -309 3 -306 13 83
232 84 238 63 250 -11 7 -173 55 -360 108 -187 53 -366 104 -397 113 l-58 16
0 462 c0 381 -2 465 -14 476 -7 8 -117 48 -242 90 -196 66 -229 80 -229 97 -1
11 -5 26 -9 34 -6 10 -5 12 2 7 15 -9 15 -1 2 24 -7 13 -7 21 0 25 5 3 10 11
10 16 0 6 -5 7 -12 3 -7 -5 -8 -3 -3 6 11 17 13 140 2 147 -4 2 -4 10 0 16 7
10 9 191 3 207 -1 3 -1 10 0 15 8 32 4 133 -5 127 -7 -4 -7 -1 0 9 11 15 12
165 2 192 -3 9 -2 19 4 23 6 4 5 12 -3 22 -7 9 -8 13 -2 10 6 -4 10 8 10 33
-1 21 -5 39 -9 39 -5 0 -5 5 -1 12 9 14 5 130 -4 140 -4 4 -162 60 -352 123
-309 105 -348 115 -380 107 -66 -19 -645 -218 -665 -229 -19 -11 -19 -23 -18
-572 1 -309 1 -561 -1 -561 -1 0 -74 -25 -162 -56 -87 -30 -166 -57 -174 -59
-8 -2 -46 -15 -85 -28 l-70 -24 0 -466 0 -467 -30 -10 c-36 -11 -621 -174
-718 -200 -38 -10 -71 -21 -74 -24 -3 -3 10 -54 29 -113 20 -59 39 -118 43
-131 l6 -22 -312 2 -312 3 0 355 c0 202 -4 360 -9 367 -5 6 -5 14 0 17 10 6
10 531 0 542 -4 4 -4 12 0 18 12 18 10 190 -2 198 -8 5 -7 8 2 8 6 0 12 7 12
15 0 8 -6 15 -12 15 -9 0 -10 3 -2 8 15 10 15 192 0 192 -6 0 -4 5 4 10 13 8
13 13 2 31 -8 11 -9 19 -5 16 6 -4 9 102 9 249 -1 160 3 259 9 263 6 5 42 25
80 46 39 21 95 51 125 68 30 16 78 42 105 57 45 25 312 171 410 225 22 12 96
52 165 90 217 118 235 127 245 135 6 4 51 29 100 55 80 43 741 404 1015 555
58 32 128 70 155 85 28 15 73 41 100 56 28 16 56 29 62 29 7 0 52 -22 100 -49z
m-162 -1767 l1 -74 -242 -80 c-134 -44 -249 -80 -258 -80 -11 0 -14 15 -13 75
1 73 1 75 31 86 92 34 472 156 476 152 2 -2 5 -38 5 -79z m645 -95 c4 -5 6
-40 5 -77 -1 -61 -3 -67 -20 -64 -26 5 -464 151 -484 162 -15 7 -20 63 -12
142 1 14 40 4 253 -68 139 -46 255 -89 258 -95z m-652 -1218 l3 -88 -343 -97
c-189 -54 -372 -106 -408 -117 -36 -10 -162 -46 -280 -79 -118 -34 -235 -67
-260 -74 -25 -8 -97 -28 -160 -46 -63 -18 -151 -43 -195 -56 -43 -13 -83 -20
-87 -16 -14 14 -57 156 -49 164 3 3 89 30 191 58 318 89 484 136 835 235 187
53 349 98 360 101 11 3 94 27 185 53 91 27 174 50 186 50 19 1 20 -5 22 -88z
m532 -21 c201 -56 471 -130 600 -166 129 -36 273 -76 320 -89 47 -13 144 -40
215 -60 72 -20 157 -43 190 -52 33 -8 63 -19 68 -22 4 -4 -4 -39 -18 -77 -14
-38 -27 -74 -30 -80 -2 -8 -31 -4 -92 13 -48 13 -99 26 -112 29 -14 3 -27 7
-31 9 -6 3 -738 211 -810 229 -99 26 -669 189 -680 195 -22 12 -22 183 0 176
8 -2 179 -50 380 -105z m-566 -1127 c-56 -50 -156 -94 -223 -100 -90 -8 -155
16 -248 95 -104 86 -184 124 -279 130 -122 8 -212 -24 -314 -113 -34 -30 -83
-64 -108 -75 -94 -45 -229 -29 -310 37 -34 27 -41 45 -107 246 l-71 217 51 14
c81 24 796 226 1235 349 l405 114 3 -441 3 -441 -37 -32z m246 891 c29 -9 61
-17 69 -19 9 -2 79 -21 156 -43 175 -49 343 -97 415 -116 30 -8 114 -31 185
-51 118 -33 498 -138 670 -185 39 -11 82 -23 97 -27 l27 -8 -63 -185 c-35
-102 -69 -196 -76 -210 -14 -29 -138 -112 -194 -130 -54 -17 -161 -8 -211 18
-22 11 -71 46 -110 78 -111 90 -202 124 -308 118 -101 -7 -165 -40 -311 -161
-56 -46 -90 -58 -166 -57 -83 0 -154 27 -220 83 l-35 29 0 441 c0 306 3 441
11 441 6 0 34 -7 64 -16z m1988 -464 l42 0 0 -200 c0 -110 -2 -200 -5 -200 -2
0 -26 14 -52 30 -42 27 -161 72 -181 69 -4 -1 -37 -1 -73 0 l-66 1 52 147 c59
167 51 159 168 156 40 -1 91 -2 115 -3z m-3978 -157 c27 -86 49 -158 47 -160
-3 -2 -17 1 -32 7 -38 14 -151 14 -206 0 -24 -6 -63 -23 -86 -36 -24 -14 -44
-24 -44 -22 -1 2 -2 85 -4 186 l-2 182 138 0 138 0 51 -157z m24 -303 c23 -11
77 -48 121 -80 128 -96 239 -127 371 -104 83 14 144 44 243 119 92 70 130 86
207 90 71 3 129 -20 192 -77 133 -120 216 -157 342 -153 96 3 164 25 250 79
102 65 92 64 164 17 123 -80 231 -103 345 -74 77 20 115 42 197 111 86 71 147
97 229 96 69 0 109 -20 195 -94 197 -170 420 -167 639 9 83 67 121 83 206 83
58 1 82 -4 137 -29 83 -39 165 -111 146 -129 -7 -6 -103 -58 -213 -115 -110
-56 -222 -115 -248 -131 -26 -15 -50 -28 -53 -28 -2 0 -44 -22 -92 -49 -102
-57 -182 -101 -272 -149 -36 -19 -87 -47 -115 -62 -27 -15 -79 -43 -115 -62
-36 -20 -171 -93 -300 -163 -129 -70 -269 -146 -310 -168 -76 -40 -126 -68
-190 -104 -19 -11 -83 -45 -142 -77 l-107 -57 -53 29 c-29 16 -89 48 -133 72
-44 23 -102 55 -130 70 -27 15 -79 43 -115 62 -36 19 -146 79 -245 133 -193
104 -258 139 -375 202 -103 55 -316 171 -365 198 -22 12 -197 106 -390 210
-192 103 -356 193 -364 200 -11 11 -7 20 24 54 48 53 96 82 159 96 57 13 100
7 160 -25z"/>
<path d="M3100 2742 l0 -89 85 -1 85 -2 0 90 0 90 -85 0 -85 0 0 -88z"/>
<path d="M3768 2832 l-46 -3 1 -88 1 -89 83 1 83 0 0 87 0 88 -37 3 c-21 2
-59 3 -85 1z"/>
</g>
</svg>
