<?xml version="1.0" encoding="UTF-8" standalone="no"?>
<!DOCTYPE svg PUBLIC "-//W3C//DTD SVG 1.1//EN" "http://www.w3.org/Graphics/SVG/1.1/DTD/svg11.dtd">
<svg xmlns="http://www.w3.org/2000/svg" version="1.1" viewBox="0.00 0.00 430.00 275.00">
<g stroke-width="2.00" fill="none" stroke-linecap="butt">
<path stroke="#0f2a4c" vector-effect="non-scaling-stroke" d="
  M 353.56 28.23
  Q 353.73 28.75 353.36 29.17
  Q 353.11 29.45 352.58 29.54
  Q 331.13 33.20 309.81 37.49
  Q 299.06 39.66 290.16 41.21
  Q 276.55 43.60 262.98 46.06"
/>
<path stroke="#082443" vector-effect="non-scaling-stroke" d="
  M 262.98 46.06
  Q 261.75 45.80 260.60 45.52
  Q 259.71 45.30 260.59 45.08
  Q 260.92 45.00 261.09 44.71
  Q 261.33 44.30 261.13 43.87
  Q 259.71 40.84 262.50 39.14
  A 1.42 1.41 -5.8 0 0 263.10 38.41
  Q 263.42 37.52 263.39 36.56
  Q 263.34 35.28 263.57 33.92
  Q 264.06 31.05 262.37 28.26
  A 1.48 1.46 -60.7 0 1 262.15 27.45
  Q 262.20 24.99 259.48 24.51
  Q 248.10 22.50 237.24 20.40
  Q 233.29 19.63 229.25 18.66
  Q 217.06 15.71 204.33 18.43
  Q 202.72 18.77 201.03 18.61
  Q 200.04 18.51 200.97 18.15
  Q 204.53 16.76 208.13 15.44
  C 210.46 14.58 212.73 14.58 215.17 14.45
  Q 216.04 14.40 215.26 14.00
  Q 214.85 13.78 214.56 13.34
  C 213.89 12.33 213.98 11.39 213.63 10.26
  A 2.02 1.95 -48.3 0 1 213.59 9.26
  Q 213.88 7.91 212.83 6.99
  Q 212.47 6.67 212.40 6.19
  L 212.20 4.69
  A 0.74 0.73 8.7 0 0 211.77 4.11
  Q 209.32 3.03 206.49 3.72
  Q 205.43 3.98 204.42 3.42
  A 0.83 0.82 -45.3 0 0 203.60 3.43
  Q 202.62 4.02 201.88 3.38"
/>
<path stroke="#143458" vector-effect="non-scaling-stroke" d="
  M 262.98 46.06
  L 244.78 49.64"
/>
<path stroke="#33567a" vector-effect="non-scaling-stroke" d="
  M 244.78 49.64
  Q 231.92 52.30 219.00 54.82
  Q 216.96 55.21 212.42 54.08
  Q 207.87 52.94 206.01 52.61
  Q 169.72 45.99 133.52 38.94
  Q 116.27 35.59 103.50 33.73
  Q 86.38 31.23 74.90 29.13"
/>
<path stroke="#0e2847" vector-effect="non-scaling-stroke" d="
  M 359.97 30.07
  Q 358.88 29.87 358.51 29.96
  Q 347.85 32.77 336.78 34.40
  C 331.39 35.20 326.84 36.29 321.76 37.22
  Q 304.52 40.38 285.23 44.21
  Q 279.76 45.29 274.26 46.26
  Q 269.01 47.19 263.29 48.40
  Q 254.09 50.33 244.78 51.76"
/>
<path stroke="#3a5c83" vector-effect="non-scaling-stroke" d="
  M 244.78 51.76
  Q 245.83 51.19 246.43 51.03
  Q 248.40 50.52 246.53 49.71
  Q 246.06 49.51 244.78 49.64"
/>
<path stroke="#2d4a69" vector-effect="non-scaling-stroke" d="
  M 244.78 51.76
  L 218.29 56.80"
/>
<path stroke="#33567a" vector-effect="non-scaling-stroke" d="
  M 218.29 56.80
  C 217.41 56.78 216.40 56.88 215.56 56.71
  Q 162.48 46.25 126.49 40.25
  Q 87.71 33.80 71.13 30.79"
/>
<path stroke="#021831" vector-effect="non-scaling-stroke" d="
  M 215.58 129.85
  Q 215.14 129.67 214.95 129.14
  Q 214.81 128.78 215.20 128.78
  Q 215.46 128.79 215.37 128.25
  Q 215.30 127.88 215.06 127.60
  L 212.60 124.67
  Q 212.31 124.32 212.28 123.86
  Q 212.24 123.09 213.00 122.93
  Q 213.47 122.83 213.13 122.49
  Q 213.02 122.38 212.86 122.37
  Q 211.72 122.26 212.95 122.17
  Q 214.68 122.05 215.76 120.04"
/>
<path stroke="#041c38" vector-effect="non-scaling-stroke" d="
  M 215.76 120.04
  Q 216.93 119.49 216.97 118.50
  Q 217.38 108.26 217.16 93.50
  Q 217.03 84.85 217.12 77.01
  Q 217.21 68.94 217.07 60.52
  A 2.14 2.06 -59.2 0 0 216.85 59.58
  Q 216.00 57.87 217.47 57.10"
/>
<path stroke="#07213e" vector-effect="non-scaling-stroke" d="
  M 217.47 57.10
  Q 218.43 57.12 218.29 56.80"
/>
<path stroke="#0a284a" vector-effect="non-scaling-stroke" d="
  M 217.47 57.10
  Q 215.97 56.62 214.73 57.40
  Q 214.11 57.79 214.80 58.06
  Q 216.15 58.59 216.56 60.01
  Q 216.70 60.51 216.40 60.94
  Q 215.06 62.85 212.90 63.40
  Q 212.07 63.61 211.27 64.13
  Q 210.43 64.68 209.88 65.46
  Q 209.11 66.58 207.91 67.25
  Q 206.23 68.19 204.68 69.49
  Q 204.45 69.68 204.35 69.95
  Q 204.15 70.49 203.67 70.80
  L 200.37 72.97
  Q 199.82 73.34 199.16 73.24
  Q 197.52 72.98 196.50 74.42
  Q 196.21 74.83 195.72 74.85
  L 189.78 75.08"
/>
<path stroke="#082443" vector-effect="non-scaling-stroke" d="
  M 189.78 75.08
  Q 183.17 73.48 176.50 72.17
  C 172.41 71.37 168.56 69.93 164.50 69.45
  C 159.38 68.85 154.41 67.71 149.34 66.57
  Q 146.43 65.92 143.13 65.39
  Q 132.24 63.64 122.37 61.34
  Q 118.87 60.52 115.58 60.18
  Q 112.04 59.82 108.89 59.08
  A 0.54 0.54 0.0 0 0 108.22 59.60
  Q 108.15 86.61 108.54 113.24
  Q 108.55 113.30 109.05 121.75
  Q 109.39 127.45 108.40 133.13
  Q 108.31 133.62 108.71 133.91
  Q 109.45 134.43 109.77 134.98"
/>
<path stroke="#051f3d" vector-effect="non-scaling-stroke" d="
  M 215.76 120.04
  Q 208.26 120.45 200.75 121.35
  Q 199.45 121.51 198.47 121.98
  A 1.77 1.77 0.0 0 1 195.93 120.44
  C 195.80 116.18 195.36 112.05 195.64 107.77
  Q 195.92 103.47 195.52 100.39
  Q 195.25 98.33 195.41 96.21
  Q 195.64 93.36 195.64 93.28
  Q 195.64 85.02 195.28 76.87
  A 1.67 1.66 -89.8 0 0 193.71 75.28
  L 189.78 75.08"
/>
<path stroke="#07213e" vector-effect="non-scaling-stroke" d="
  M 311.48 117.15
  A 1.52 1.52 0.0 0 0 312.76 118.64
  L 315.01 119.00
  A 1.52 1.52 0.0 0 0 316.77 117.51
  L 317.10 68.21
  A 1.52 1.52 0.0 0 0 315.26 66.71
  L 312.42 67.31
  A 1.52 1.52 0.0 0 0 311.22 68.81
  L 311.48 117.15"
/>
<path stroke="#07213e" vector-effect="non-scaling-stroke" d="
  M 304.4505 70.1208
  A 1.85 1.85 0.0 0 0 302.5941 68.2773
  L 300.9341 68.2830
  A 1.85 1.85 0.0 0 0 299.0905 70.1395
  L 299.2495 115.6792
  A 1.85 1.85 0.0 0 0 301.1059 117.5227
  L 302.7659 117.5170
  A 1.85 1.85 0.0 0 0 304.6095 115.6605
  L 304.4505 70.1208"
/>
<path stroke="#07213e" vector-effect="non-scaling-stroke" d="
  M 289.13 120.31
  L 290.35 120.04
  Q 292.33 119.59 292.38 117.57
  Q 292.92 95.77 292.44 74.67
  Q 292.39 72.49 290.25 72.94
  L 289.24 73.15
  Q 287.06 73.61 286.97 75.84
  Q 286.12 97.36 286.93 118.62
  Q 287.02 120.78 289.13 120.31"
/>
<path stroke="#07213e" vector-effect="non-scaling-stroke" d="
  M 275.54 76.05
  Q 274.81 76.07 274.76 76.80
  C 274.03 87.59 274.51 98.51 274.50 109.16
  Q 274.50 118.35 274.73 128.44
  Q 274.77 130.09 276.07 129.07
  L 278.69 127.02
  A 3.41 3.39 -19.2 0 0 280.00 124.32
  L 279.92 77.05
  Q 279.92 75.93 278.80 75.96
  L 275.54 76.05"
/>
<path stroke="#07213e" vector-effect="non-scaling-stroke" d="
  M 262.67 79.21
  Q 262.40 81.69 262.41 88.75
  Q 262.42 114.95 262.49 141.32
  Q 262.50 143.33 263.62 141.66
  C 265.80 138.43 268.07 135.56 267.93 131.36
  C 267.50 118.54 268.29 105.65 267.82 92.71
  C 267.66 88.12 268.29 83.50 267.95 78.94
  A 1.15 1.14 87.8 0 0 266.81 77.88
  L 264.14 77.89
  Q 262.81 77.89 262.67 79.21"
/>
<path stroke="#07213e" vector-effect="non-scaling-stroke" d="
  M 251.29 81.72
  Q 250.02 82.09 249.92 83.41
  Q 249.63 87.23 249.59 90.47
  Q 249.45 101.71 249.76 132.15
  C 249.79 135.15 252.11 137.07 253.96 139.13
  A 0.54 0.54 0.0 0 0 254.81 139.07
  Q 255.12 138.60 255.13 138.02
  Q 255.40 121.69 255.66 105.52
  Q 255.81 96.56 255.54 81.86
  Q 255.52 80.47 254.19 80.86
  L 251.29 81.72"
/>
<path stroke="#07213e" vector-effect="non-scaling-stroke" d="
  M 239.84 126.36
  Q 241.26 127.41 242.57 128.60
  Q 243.88 129.80 243.89 128.02
  L 244.00 85.36
  Q 244.01 83.45 242.11 83.65
  L 240.52 83.81
  Q 238.31 84.04 238.21 86.25
  Q 237.34 104.70 237.69 122.19
  A 5.33 5.32 17.8 0 0 239.84 126.36"
/>
<path stroke="#0f2a4c" vector-effect="non-scaling-stroke" d="
  M 130.14 65.03
  L 125.82 65.05
  A 0.79 0.79 0.0 0 0 125.03 65.84
  L 125.21 117.17
  A 0.96 0.62 89.8 0 0 125.83 118.13
  L 130.49 118.11
  A 0.96 0.62 89.8 0 0 131.11 117.15
  L 130.93 65.82
  A 0.79 0.79 0.0 0 0 130.14 65.03"
/>
<path stroke="#0f2a4c" vector-effect="non-scaling-stroke" d="
  M 116.04 66.48
  Q 115.63 66.37 115.22 66.30
  Q 112.93 65.90 112.94 68.22
  L 113.15 118.17
  Q 113.15 118.95 113.92 118.85
  L 118.02 118.35
  Q 118.89 118.24 118.86 117.37
  C 118.39 101.58 118.99 85.74 118.79 70.04
  Q 118.75 67.22 116.04 66.48"
/>
<path stroke="#0f2a4c" vector-effect="non-scaling-stroke" d="
  M 143.03 74.13
  A 0.88 0.88 0.0 0 0 142.06 73.25
  L 138.07 73.67
  A 0.88 0.88 0.0 0 0 137.28 74.54
  L 137.31 117.57
  A 0.88 0.88 0.0 0 0 137.83 118.37
  L 141.72 120.12
  A 0.88 0.88 0.0 0 0 142.96 119.32
  L 143.03 74.13"
/>
<path stroke="#0f2a4c" vector-effect="non-scaling-stroke" d="
  M 162.33 78.96
  Q 162.23 104.72 161.98 130.50
  Q 161.94 134.47 163.04 137.03
  Q 164.58 140.62 167.20 144.36
  A 0.38 0.37 -62.8 0 0 167.88 144.14
  L 167.72 78.92"
/>
<path stroke="#082443" vector-effect="non-scaling-stroke" d="
  M 167.72 78.92
  L 167.77 74.74
  Q 167.79 73.27 166.31 73.18
  Q 164.81 73.10 163.30 73.32
  Q 162.04 73.51 162.10 74.78
  L 162.33 78.96"
/>
<path stroke="#143458" vector-effect="non-scaling-stroke" d="
  M 167.72 78.92
  Q 165.10 78.35 162.33 78.96"
/>
<path stroke="#0f2a4c" vector-effect="non-scaling-stroke" d="
  M 174.26 80.81
  L 174.20 138.95
  Q 174.20 140.59 175.28 139.36
  L 179.05 135.04
  Q 180.26 133.66 180.27 131.82
  L 180.44 82.26"
/>
<path stroke="#082443" vector-effect="non-scaling-stroke" d="
  M 180.44 82.26
  L 180.40 77.06
  Q 180.39 75.04 178.37 75.06
  L 175.78 75.08
  Q 173.93 75.10 174.40 76.89
  Q 174.92 78.86 174.26 80.81"
/>
<path stroke="#143458" vector-effect="non-scaling-stroke" d="
  M 180.44 82.26
  Q 178.29 80.69 174.26 80.81"
/>
<path stroke="#0f2a4c" vector-effect="non-scaling-stroke" d="
  M 150.17 124.63
  A 0.71 0.71 0.0 0 0 150.38 125.13
  L 154.52 129.28
  A 0.71 0.71 0.0 0 0 155.73 128.77
  L 155.45 76.95
  A 0.71 0.71 0.0 0 0 154.76 76.24
  L 150.81 76.15
  A 0.71 0.71 0.0 0 0 150.08 76.86
  L 150.17 124.63"
/>
<path stroke="#0f2a4c" vector-effect="non-scaling-stroke" d="
  M 186.68 82.61
  L 186.69 126.82
  Q 186.69 128.21 187.86 127.47
  L 192.03 124.83
  Q 192.99 124.22 192.98 123.09
  L 192.63 87.55"
/>
<path stroke="#082443" vector-effect="non-scaling-stroke" d="
  M 192.63 87.55
  L 193.02 79.36
  Q 193.09 77.89 191.62 77.94
  Q 189.83 78.00 187.97 77.53
  Q 186.60 77.18 186.62 78.60
  L 186.68 82.61"
/>
<path stroke="#143458" vector-effect="non-scaling-stroke" d="
  M 192.63 87.55
  Q 192.86 85.88 192.48 84.86
  Q 192.13 83.92 190.52 83.50
  Q 188.83 83.07 186.68 82.61"
/>
<path stroke="#0e2847" vector-effect="non-scaling-stroke" d="
  M 402.98 136.27
  Q 402.76 136.75 402.73 136.91
  A 0.70 0.70 0.0 0 0 403.45 137.73
  Q 407.94 137.50 412.12 137.87
  Q 416.20 138.23 429.06 137.66"
/>
<path stroke="#0e2847" vector-effect="non-scaling-stroke" d="
  M 381.10 195.85
  Q 381.54 191.88 381.61 187.88
  Q 381.67 184.37 381.77 180.88
  Q 382.09 169.51 381.82 157.83
  A 0.47 0.47 0.0 0 0 381.16 157.42
  Q 380.58 157.68 381.10 157.74"
/>
<path stroke="#021831" vector-effect="non-scaling-stroke" d="
  M 218.08 274.96
  Q 217.98 274.12 218.37 273.63
  Q 218.67 273.25 218.49 272.80
  Q 218.26 272.20 217.65 271.90
  Q 217.22 271.69 217.22 271.21
  Q 217.29 263.10 216.97 256.22
  Q 216.59 247.98 216.75 241.24
  Q 217.02 230.13 216.91 218.58
  C 216.83 210.14 217.18 201.73 217.13 193.27
  Q 217.09 186.87 217.54 180.26
  Q 217.99 173.76 218.38 167.25
  Q 218.67 162.63 214.94 160.83
  A 2.91 2.91 0.0 0 0 211.25 161.83
  Q 210.14 163.51 209.23 165.34
  Q 208.79 166.22 208.12 166.91
  Q 206.73 168.31 206.33 170.19
  Q 206.30 170.32 206.16 170.34
  Q 205.42 170.43 205.43 171.18
  Q 205.44 171.59 205.05 171.74
  Q 204.83 171.83 204.60 171.82
  Q 204.18 171.81 203.86 171.51
  Q 201.40 169.20 198.19 169.43
  Q 197.66 169.47 197.45 168.99
  Q 196.96 167.87 197.89 167.22
  Q 198.14 167.04 198.02 166.75
  Q 197.62 165.78 198.04 164.89
  A 0.36 0.35 -52.5 0 0 198.00 164.54
  Q 197.77 164.21 197.41 164.46
  A 0.45 0.45 0.0 0 0 197.22 164.76
  Q 196.93 166.43 195.26 165.93"
/>
<path stroke="#041c38" vector-effect="non-scaling-stroke" d="
  M 300.29 233.04
  L 303.25 233.02
  A 1.19 1.19 0.0 0 0 304.43 231.82
  L 304.01 172.12
  A 4.39 2.54 89.6 0 0 301.44 167.75
  L 301.18 167.75
  A 4.39 2.54 89.6 0 0 298.67 172.16
  L 299.09 231.86
  A 1.19 1.19 0.0 0 0 300.29 233.04"
/>
<path stroke="#041c38" vector-effect="non-scaling-stroke" d="
  M 314.83 176.90
  Q 314.10 176.05 313.13 175.52
  Q 311.16 174.44 311.24 176.69
  C 311.47 182.59 310.89 188.55 311.00 194.46
  Q 311.32 211.94 311.28 228.87
  Q 311.28 231.21 313.58 230.77
  L 315.84 230.33
  A 1.91 1.91 0.0 0 0 317.39 228.42
  L 316.73 181.85
  Q 316.69 179.03 314.83 176.90"
/>
<path stroke="#041c38" vector-effect="non-scaling-stroke" d="
  M 292.80 182.94
  A 1.11 1.11 0.0 0 0 291.10 181.99
  L 287.35 184.38
  A 1.11 1.11 0.0 0 0 286.84 185.31
  L 286.62 234.50
  A 1.11 1.11 0.0 0 0 287.91 235.60
  L 291.46 234.99
  A 1.11 1.11 0.0 0 0 292.38 233.90
  L 292.80 182.94"
/>
<path stroke="#07213e" vector-effect="non-scaling-stroke" d="
  M 243.79 192.36
  A 1.60 1.60 0.0 0 0 243.40 191.31
  L 240.55 188.04
  A 1.60 1.60 0.0 0 0 237.74 189.11
  L 238.15 245.20
  A 1.60 1.60 0.0 0 0 239.57 246.78
  L 242.05 247.06
  A 1.60 1.60 0.0 0 0 243.83 245.47
  L 243.79 192.36"
/>
<path stroke="#07213e" vector-effect="non-scaling-stroke" d="
  M 279.97 235.86
  L 279.93 190.24
  A 0.51 0.51 0.0 0 0 279.24 189.77
  L 276.17 190.94
  A 1.92 1.91 80.2 0 0 274.96 192.66
  Q 274.37 214.97 274.94 237.16
  Q 274.99 239.06 276.84 238.64
  L 277.95 238.39
  Q 279.97 237.93 279.97 235.86"
/>
<path stroke="#07213e" vector-effect="non-scaling-stroke" d="
  M 250.22 242.78
  A 1.73 1.73 0.0 0 0 252.38 244.44
  L 254.26 243.96
  A 1.73 1.73 0.0 0 0 255.56 242.28
  L 255.46 195.53
  A 1.73 1.73 0.0 0 0 253.82 193.81
  L 251.67 193.69
  A 1.73 1.73 0.0 0 0 249.85 195.44
  L 250.22 242.78"
/>
<path stroke="#07213e" vector-effect="non-scaling-stroke" d="
  M 268.45 195.27
  A 1.35 1.35 0.0 0 0 266.98 193.91
  L 263.50 194.22
  A 1.35 1.35 0.0 0 0 262.27 195.57
  L 262.32 240.17
  A 1.35 1.35 0.0 0 0 263.87 241.51
  L 266.92 241.05
  A 1.35 1.35 0.0 0 0 268.07 239.73
  L 268.45 195.27"
/>
<path stroke="#051f3d" vector-effect="non-scaling-stroke" d="
  M 135.25 152.68
  Q 132.64 154.36 131.75 154.66
  Q 130.33 155.14 129.02 155.72
  C 127.60 156.36 126.54 158.47 125.51 159.77
  Q 124.72 160.77 124.31 161.94
  Q 123.13 165.29 118.91 167.44
  Q 114.12 169.89 110.03 172.03
  Q 108.71 172.71 108.03 174.03
  Q 107.52 175.01 107.24 176.52
  Q 107.19 176.82 107.26 177.11
  Q 108.15 180.49 107.86 185.25
  Q 107.63 188.88 107.87 192.11
  C 108.26 197.19 107.62 202.24 108.03 207.29
  Q 108.34 211.11 108.00 215.16
  C 107.61 219.93 108.10 224.82 108.17 229.68
  A 2.76 2.72 22.6 0 0 108.95 231.54
  Q 110.35 232.97 111.13 232.00
  Q 111.41 231.65 111.84 231.52
  Q 112.70 231.27 113.45 230.88
  Q 113.80 230.70 113.69 230.33
  Q 113.65 230.19 113.51 230.16
  Q 112.99 230.05 113.00 229.52
  L 113.21 223.04"
/>
<path stroke="#102f53" vector-effect="non-scaling-stroke" d="
  M 113.21 223.04
  L 113.28 227.73
  Q 113.31 229.35 114.90 229.67
  L 117.22 230.13
  Q 118.67 230.42 118.68 228.95
  L 118.78 220.03"
/>
<path stroke="#051f3d" vector-effect="non-scaling-stroke" d="
  M 118.78 220.03
  L 118.70 229.83
  Q 118.70 230.34 118.31 230.65
  Q 117.78 231.08 117.13 231.15
  Q 116.34 231.23 117.04 231.60
  Q 117.36 231.77 117.68 231.90
  Q 118.22 232.12 118.04 232.66
  Q 117.80 233.47 118.12 234.31
  Q 118.28 234.74 118.69 234.97
  Q 120.03 235.73 121.17 236.78
  Q 121.68 237.26 122.55 237.26
  Q 123.29 237.26 123.81 237.75
  Q 124.33 238.25 124.09 238.99
  A 1.02 1.01 27.7 0 0 124.45 240.12
  L 125.06 240.56
  Q 125.74 241.06 125.30 241.78
  Q 124.59 242.96 125.66 243.87
  Q 126.09 244.24 126.25 244.78
  L 127.07 247.67
  Q 127.22 248.19 127.71 248.42
  Q 129.33 249.17 129.39 251.01
  Q 129.42 251.82 130.01 252.19
  Q 130.39 252.42 130.30 252.86
  Q 130.19 253.40 129.75 253.49
  Q 128.99 253.65 129.68 254.04
  Q 130.42 254.46 129.95 254.93"
/>
<path stroke="#102f53" vector-effect="non-scaling-stroke" d="
  M 27.30 197.36
  Q 27.75 187.48 27.93 177.75
  Q 28.10 168.36 27.50 158.81"
/>
<path stroke="#0f2a4c" vector-effect="non-scaling-stroke" d="
  M 118.78 220.03
  L 118.72 178.80
  Q 118.72 176.44 116.73 177.71
  L 115.62 178.42
  A 5.25 5.24 -16.4 0 0 113.21 182.83
  L 113.21 223.04"
/>
<path stroke="#0f2a4c" vector-effect="non-scaling-stroke" d="
  M 125.17 230.94
  A 1.16 1.16 0.0 0 0 126.06 232.07
  L 129.26 232.82
  A 1.16 1.16 0.0 0 0 130.69 231.70
  L 130.89 172.86
  A 1.16 1.16 0.0 0 0 130.36 171.89
  L 126.76 169.54
  A 1.16 1.16 0.0 0 0 124.97 170.51
  L 125.17 230.94"
/>
<path stroke="#0f2a4c" vector-effect="non-scaling-stroke" d="
  M 142.87 234.03
  C 142.57 219.14 142.96 204.16 143.00 189.25
  Q 143.01 186.95 142.70 184.88
  Q 142.62 184.32 142.20 183.92
  L 138.74 180.72
  A 0.44 0.44 0.0 0 0 138.01 180.99
  Q 137.65 183.74 137.60 186.50
  Q 137.19 207.71 137.27 233.16
  Q 137.27 234.44 138.54 234.67
  L 141.52 235.19
  Q 142.90 235.44 142.87 234.03"
/>
<path stroke="#082443" vector-effect="non-scaling-stroke" d="
  M 192.35 222.51
  Q 193.04 206.01 192.59 188.70
  Q 192.54 187.06 191.00 187.63
  L 188.64 188.49
  Q 187.02 189.09 186.98 190.81
  Q 186.41 217.14 187.05 243.75
  A 1.93 1.93 0.0 0 0 188.68 245.61
  L 190.98 245.96
  Q 192.71 246.23 192.41 244.50
  Q 192.11 242.76 192.09 241.00
  C 192.03 234.92 192.09 228.69 192.35 222.51"
/>
<path stroke="#0f2a4c" vector-effect="non-scaling-stroke" d="
  M 149.93 235.96
  A 1.05 1.05 0.0 0 0 150.66 236.96
  L 153.99 238.04
  A 1.05 1.05 0.0 0 0 155.36 237.04
  L 155.40 191.91
  A 1.05 1.05 0.0 0 0 154.83 190.98
  L 151.40 189.23
  A 1.05 1.05 0.0 0 0 149.87 190.17
  L 149.93 235.96"
/>
<path stroke="#082443" vector-effect="non-scaling-stroke" d="
  M 180.32 194.39
  A 1.50 1.50 0.0 0 0 178.36 192.96
  L 175.61 193.86
  A 1.50 1.50 0.0 0 0 174.58 195.27
  L 174.14 240.99
  A 1.50 1.50 0.0 0 0 175.35 242.48
  L 178.56 243.11
  A 1.50 1.50 0.0 0 0 180.35 241.64
  L 180.32 194.39"
/>
<path stroke="#0f2a4c" vector-effect="non-scaling-stroke" d="
  M 162.29 238.37
  A 1.32 1.32 0.0 0 0 163.21 239.63
  L 165.69 240.41
  A 1.32 1.32 0.0 0 0 167.40 239.15
  L 167.65 195.31
  A 1.32 1.32 0.0 0 0 166.33 193.98
  L 163.57 193.98
  A 1.32 1.32 0.0 0 0 162.25 195.30
  L 162.29 238.37"
/>
</g>
<path fill="#031a36" d="
  M 353.56 28.23
  Q 353.73 28.75 353.36 29.17
  Q 353.11 29.45 352.58 29.54
  Q 331.13 33.20 309.81 37.49
  Q 299.06 39.66 290.16 41.21
  Q 276.55 43.60 262.98 46.06
  Q 261.75 45.80 260.60 45.52
  Q 259.71 45.30 260.59 45.08
  Q 260.92 45.00 261.09 44.71
  Q 261.33 44.30 261.13 43.87
  Q 259.71 40.84 262.50 39.14
  A 1.42 1.41 -5.8 0 0 263.10 38.41
  Q 263.42 37.52 263.39 36.56
  Q 263.34 35.28 263.57 33.92
  Q 264.06 31.05 262.37 28.26
  A 1.48 1.46 -60.7 0 1 262.15 27.45
  Q 262.20 24.99 259.48 24.51
  Q 248.10 22.50 237.24 20.40
  Q 233.29 19.63 229.25 18.66
  Q 217.06 15.71 204.33 18.43
  Q 202.72 18.77 201.03 18.61
  Q 200.04 18.51 200.97 18.15
  Q 204.53 16.76 208.13 15.44
  C 210.46 14.58 212.73 14.58 215.17 14.45
  Q 216.04 14.40 215.26 14.00
  Q 214.85 13.78 214.56 13.34
  C 213.89 12.33 213.98 11.39 213.63 10.26
  A 2.02 1.95 -48.3 0 1 213.59 9.26
  Q 213.88 7.91 212.83 6.99
  Q 212.47 6.67 212.40 6.19
  L 212.20 4.69
  A 0.74 0.73 8.7 0 0 211.77 4.11
  Q 209.32 3.03 206.49 3.72
  Q 205.43 3.98 204.42 3.42
  A 0.83 0.82 -45.3 0 0 203.60 3.43
  Q 202.62 4.02 201.88 3.38
  Q 208.14 1.88 214.42 0.74
  C 216.24 0.41 218.02 0.67 219.77 0.99
  Q 248.22 6.31 280.53 13.36
  Q 287.10 14.79 293.72 16.19
  Q 321.66 22.10 347.51 27.01
  Q 350.54 27.59 353.56 28.23
  Z"
/>
<path fill="#0d2d4f" d="
  M 262.98 46.06
  L 244.78 49.64
  Q 231.92 52.30 219.00 54.82
  Q 216.96 55.21 212.42 54.08
  Q 207.87 52.94 206.01 52.61
  Q 169.72 45.99 133.52 38.94
  Q 116.27 35.59 103.50 33.73
  Q 86.38 31.23 74.90 29.13
  L 201.88 3.38
  Q 202.62 4.02 203.60 3.43
  A 0.83 0.82 -45.3 0 1 204.42 3.42
  Q 205.43 3.98 206.49 3.72
  Q 209.32 3.03 211.77 4.11
  A 0.74 0.73 8.7 0 1 212.20 4.69
  L 212.40 6.19
  Q 212.47 6.67 212.83 6.99
  Q 213.88 7.91 213.59 9.26
  A 2.02 1.95 -48.3 0 0 213.63 10.26
  C 213.98 11.39 213.89 12.33 214.56 13.34
  Q 214.85 13.78 215.26 14.00
  Q 216.04 14.40 215.17 14.45
  C 212.73 14.58 210.46 14.58 208.13 15.44
  Q 204.53 16.76 200.97 18.15
  Q 200.04 18.51 201.03 18.61
  Q 202.72 18.77 204.33 18.43
  Q 217.06 15.71 229.25 18.66
  Q 233.29 19.63 237.24 20.40
  Q 248.10 22.50 259.48 24.51
  Q 262.20 24.99 262.15 27.45
  A 1.48 1.46 -60.7 0 0 262.37 28.26
  Q 264.06 31.05 263.57 33.92
  Q 263.34 35.28 263.39 36.56
  Q 263.42 37.52 263.10 38.41
  A 1.42 1.41 -5.8 0 1 262.50 39.14
  Q 259.71 40.84 261.13 43.87
  Q 261.33 44.30 261.09 44.71
  Q 260.92 45.00 260.59 45.08
  Q 259.71 45.30 260.60 45.52
  Q 261.75 45.80 262.98 46.06
  Z"
/>
<path fill="#1a3a61" d="
  M 353.56 28.23
  L 359.38 29.07
  Q 359.91 29.15 359.95 29.69
  L 359.97 30.07
  Q 358.88 29.87 358.51 29.96
  Q 347.85 32.77 336.78 34.40
  C 331.39 35.20 326.84 36.29 321.76 37.22
  Q 304.52 40.38 285.23 44.21
  Q 279.76 45.29 274.26 46.26
  Q 269.01 47.19 263.29 48.40
  Q 254.09 50.33 244.78 51.76
  Q 245.83 51.19 246.43 51.03
  Q 248.40 50.52 246.53 49.71
  Q 246.06 49.51 244.78 49.64
  L 262.98 46.06
  Q 276.55 43.60 290.16 41.21
  Q 299.06 39.66 309.81 37.49
  Q 331.13 33.20 352.58 29.54
  Q 353.11 29.45 353.36 29.17
  Q 353.73 28.75 353.56 28.23
  Z"
/>
<path fill="#597ea5" d="
  M 74.90 29.13
  Q 86.38 31.23 103.50 33.73
  Q 116.27 35.59 133.52 38.94
  Q 169.72 45.99 206.01 52.61
  Q 207.87 52.94 212.42 54.08
  Q 216.96 55.21 219.00 54.82
  Q 231.92 52.30 244.78 49.64
  Q 246.06 49.51 246.53 49.71
  Q 248.40 50.52 246.43 51.03
  Q 245.83 51.19 244.78 51.76
  L 218.29 56.80
  C 217.41 56.78 216.40 56.88 215.56 56.71
  Q 162.48 46.25 126.49 40.25
  Q 87.71 33.80 71.13 30.79
  Q 71.15 28.78 74.90 29.13
  Z"
/>
<path fill="#01152c" d="
  M 359.97 30.07
  L 359.90 56.10
  A 1.63 1.62 84.5 0 1 358.60 57.68
  L 346.41 60.16
  A 1.80 1.80 0.0 0 0 344.98 61.92
  Q 345.02 97.04 344.98 135.25
  C 344.97 139.63 342.77 144.65 338.30 145.74
  C 335.32 146.47 331.86 146.71 329.58 144.18
  C 321.64 135.38 314.61 128.73 301.48 129.99
  Q 287.61 131.33 278.97 141.57
  C 276.26 144.78 274.71 148.77 272.56 152.38
  Q 267.17 161.43 256.59 160.13
  Q 253.11 159.70 250.82 157.45
  C 246.84 153.55 244.43 148.68 241.34 144.11
  C 235.58 135.60 225.83 130.38 215.58 129.85
  Q 215.14 129.67 214.95 129.14
  Q 214.81 128.78 215.20 128.78
  Q 215.46 128.79 215.37 128.25
  Q 215.30 127.88 215.06 127.60
  L 212.60 124.67
  Q 212.31 124.32 212.28 123.86
  Q 212.24 123.09 213.00 122.93
  Q 213.47 122.83 213.13 122.49
  Q 213.02 122.38 212.86 122.37
  Q 211.72 122.26 212.95 122.17
  Q 214.68 122.05 215.76 120.04
  Q 216.93 119.49 216.97 118.50
  Q 217.38 108.26 217.16 93.50
  Q 217.03 84.85 217.12 77.01
  Q 217.21 68.94 217.07 60.52
  A 2.14 2.06 -59.2 0 0 216.85 59.58
  Q 216.00 57.87 217.47 57.10
  Q 218.43 57.12 218.29 56.80
  L 244.78 51.76
  Q 254.09 50.33 263.29 48.40
  Q 269.01 47.19 274.26 46.26
  Q 279.76 45.29 285.23 44.21
  Q 304.52 40.38 321.76 37.22
  C 326.84 36.29 331.39 35.20 336.78 34.40
  Q 347.85 32.77 358.51 29.96
  Q 358.88 29.87 359.97 30.07
  Z
  M 311.48 117.15
  A 1.52 1.52 0.0 0 0 312.76 118.64
  L 315.01 119.00
  A 1.52 1.52 0.0 0 0 316.77 117.51
  L 317.10 68.21
  A 1.52 1.52 0.0 0 0 315.26 66.71
  L 312.42 67.31
  A 1.52 1.52 0.0 0 0 311.22 68.81
  L 311.48 117.15
  Z
  M 304.4505 70.1208
  A 1.85 1.85 0.0 0 0 302.5941 68.2773
  L 300.9341 68.2830
  A 1.85 1.85 0.0 0 0 299.0905 70.1395
  L 299.2495 115.6792
  A 1.85 1.85 0.0 0 0 301.1059 117.5227
  L 302.7659 117.5170
  A 1.85 1.85 0.0 0 0 304.6095 115.6605
  L 304.4505 70.1208
  Z
  M 289.13 120.31
  L 290.35 120.04
  Q 292.33 119.59 292.38 117.57
  Q 292.92 95.77 292.44 74.67
  Q 292.39 72.49 290.25 72.94
  L 289.24 73.15
  Q 287.06 73.61 286.97 75.84
  Q 286.12 97.36 286.93 118.62
  Q 287.02 120.78 289.13 120.31
  Z
  M 275.54 76.05
  Q 274.81 76.07 274.76 76.80
  C 274.03 87.59 274.51 98.51 274.50 109.16
  Q 274.50 118.35 274.73 128.44
  Q 274.77 130.09 276.07 129.07
  L 278.69 127.02
  A 3.41 3.39 -19.2 0 0 280.00 124.32
  L 279.92 77.05
  Q 279.92 75.93 278.80 75.96
  L 275.54 76.05
  Z
  M 262.67 79.21
  Q 262.40 81.69 262.41 88.75
  Q 262.42 114.95 262.49 141.32
  Q 262.50 143.33 263.62 141.66
  C 265.80 138.43 268.07 135.56 267.93 131.36
  C 267.50 118.54 268.29 105.65 267.82 92.71
  C 267.66 88.12 268.29 83.50 267.95 78.94
  A 1.15 1.14 87.8 0 0 266.81 77.88
  L 264.14 77.89
  Q 262.81 77.89 262.67 79.21
  Z
  M 251.29 81.72
  Q 250.02 82.09 249.92 83.41
  Q 249.63 87.23 249.59 90.47
  Q 249.45 101.71 249.76 132.15
  C 249.79 135.15 252.11 137.07 253.96 139.13
  A 0.54 0.54 0.0 0 0 254.81 139.07
  Q 255.12 138.60 255.13 138.02
  Q 255.40 121.69 255.66 105.52
  Q 255.81 96.56 255.54 81.86
  Q 255.52 80.47 254.19 80.86
  L 251.29 81.72
  Z
  M 239.84 126.36
  Q 241.26 127.41 242.57 128.60
  Q 243.88 129.80 243.89 128.02
  L 244.00 85.36
  Q 244.01 83.45 242.11 83.65
  L 240.52 83.81
  Q 238.31 84.04 238.21 86.25
  Q 237.34 104.70 237.69 122.19
  A 5.33 5.32 17.8 0 0 239.84 126.36
  Z"
/>
<path fill="#0d2d4f" d="
  M 71.13 30.79
  Q 87.71 33.80 126.49 40.25
  Q 162.48 46.25 215.56 56.71
  C 216.40 56.88 217.41 56.78 218.29 56.80
  Q 218.43 57.12 217.47 57.10
  Q 215.97 56.62 214.73 57.40
  Q 214.11 57.79 214.80 58.06
  Q 216.15 58.59 216.56 60.01
  Q 216.70 60.51 216.40 60.94
  Q 215.06 62.85 212.90 63.40
  Q 212.07 63.61 211.27 64.13
  Q 210.43 64.68 209.88 65.46
  Q 209.11 66.58 207.91 67.25
  Q 206.23 68.19 204.68 69.49
  Q 204.45 69.68 204.35 69.95
  Q 204.15 70.49 203.67 70.80
  L 200.37 72.97
  Q 199.82 73.34 199.16 73.24
  Q 197.52 72.98 196.50 74.42
  Q 196.21 74.83 195.72 74.85
  L 189.78 75.08
  Q 183.17 73.48 176.50 72.17
  C 172.41 71.37 168.56 69.93 164.50 69.45
  C 159.38 68.85 154.41 67.71 149.34 66.57
  Q 146.43 65.92 143.13 65.39
  Q 132.24 63.64 122.37 61.34
  Q 118.87 60.52 115.58 60.18
  Q 112.04 59.82 108.89 59.08
  A 0.54 0.54 0.0 0 0 108.22 59.60
  Q 108.15 86.61 108.54 113.24
  Q 108.55 113.30 109.05 121.75
  Q 109.39 127.45 108.40 133.13
  Q 108.31 133.62 108.71 133.91
  Q 109.45 134.43 109.77 134.98
  Q 106.92 137.74 104.43 140.86
  C 101.72 144.27 97.55 147.68 92.81 146.29
  C 85.98 144.29 86.90 139.50 86.93 133.98
  Q 87.08 94.24 86.96 62.72
  Q 86.96 60.27 84.55 59.81
  L 72.66 57.54
  A 2.01 2.00 -84.6 0 1 71.03 55.57
  L 71.13 30.79
  Z"
/>
<path fill="#062344" d="
  M 217.47 57.10
  Q 216.00 57.87 216.85 59.58
  A 2.14 2.06 -59.2 0 1 217.07 60.52
  Q 217.21 68.94 217.12 77.01
  Q 217.03 84.85 217.16 93.50
  Q 217.38 108.26 216.97 118.50
  Q 216.93 119.49 215.76 120.04
  Q 208.26 120.45 200.75 121.35
  Q 199.45 121.51 198.47 121.98
  A 1.77 1.77 0.0 0 1 195.93 120.44
  C 195.80 116.18 195.36 112.05 195.64 107.77
  Q 195.92 103.47 195.52 100.39
  Q 195.25 98.33 195.41 96.21
  Q 195.64 93.36 195.64 93.28
  Q 195.64 85.02 195.28 76.87
  A 1.67 1.66 -89.8 0 0 193.71 75.28
  L 189.78 75.08
  L 195.72 74.85
  Q 196.21 74.83 196.50 74.42
  Q 197.52 72.98 199.16 73.24
  Q 199.82 73.34 200.37 72.97
  L 203.67 70.80
  Q 204.15 70.49 204.35 69.95
  Q 204.45 69.68 204.68 69.49
  Q 206.23 68.19 207.91 67.25
  Q 209.11 66.58 209.88 65.46
  Q 210.43 64.68 211.27 64.13
  Q 212.07 63.61 212.90 63.40
  Q 215.06 62.85 216.40 60.94
  Q 216.70 60.51 216.56 60.01
  Q 216.15 58.59 214.80 58.06
  Q 214.11 57.79 214.73 57.40
  Q 215.97 56.62 217.47 57.10
  Z"
/>
<path fill="#031a36" d="
  M 189.78 75.08
  L 193.71 75.28
  A 1.67 1.66 -89.8 0 1 195.28 76.87
  Q 195.64 85.02 195.64 93.28
  Q 195.64 93.36 195.41 96.21
  Q 195.25 98.33 195.52 100.39
  Q 195.92 103.47 195.64 107.77
  C 195.36 112.05 195.80 116.18 195.93 120.44
  A 1.77 1.77 0.0 0 0 198.47 121.98
  Q 199.45 121.51 200.75 121.35
  Q 208.26 120.45 215.76 120.04
  Q 214.68 122.05 212.95 122.17
  Q 211.72 122.26 212.86 122.37
  Q 213.02 122.38 213.13 122.49
  Q 213.47 122.83 213.00 122.93
  Q 212.24 123.09 212.28 123.86
  Q 212.31 124.32 212.60 124.67
  L 215.06 127.60
  Q 215.30 127.88 215.37 128.25
  Q 215.46 128.79 215.20 128.78
  Q 214.81 128.78 214.95 129.14
  Q 215.14 129.67 215.58 129.85
  Q 199.61 130.23 189.52 141.07
  C 186.84 143.94 184.65 148.06 182.57 151.81
  C 178.43 159.30 171.26 162.30 163.20 158.76
  Q 159.24 157.02 156.26 151.81
  C 153.02 146.16 150.20 140.87 145.10 136.62
  C 134.68 127.95 121.23 127.69 109.77 134.98
  Q 109.45 134.43 108.71 133.91
  Q 108.31 133.62 108.40 133.13
  Q 109.39 127.45 109.05 121.75
  Q 108.55 113.30 108.54 113.24
  Q 108.15 86.61 108.22 59.60
  A 0.54 0.54 0.0 0 1 108.89 59.08
  Q 112.04 59.82 115.58 60.18
  Q 118.87 60.52 122.37 61.34
  Q 132.24 63.64 143.13 65.39
  Q 146.43 65.92 149.34 66.57
  C 154.41 67.71 159.38 68.85 164.50 69.45
  C 168.56 69.93 172.41 71.37 176.50 72.17
  Q 183.17 73.48 189.78 75.08
  Z
  M 130.14 65.03
  L 125.82 65.05
  A 0.79 0.79 0.0 0 0 125.03 65.84
  L 125.21 117.17
  A 0.96 0.62 89.8 0 0 125.83 118.13
  L 130.49 118.11
  A 0.96 0.62 89.8 0 0 131.11 117.15
  L 130.93 65.82
  A 0.79 0.79 0.0 0 0 130.14 65.03
  Z
  M 116.04 66.48
  Q 115.63 66.37 115.22 66.30
  Q 112.93 65.90 112.94 68.22
  L 113.15 118.17
  Q 113.15 118.95 113.92 118.85
  L 118.02 118.35
  Q 118.89 118.24 118.86 117.37
  C 118.39 101.58 118.99 85.74 118.79 70.04
  Q 118.75 67.22 116.04 66.48
  Z
  M 143.03 74.13
  A 0.88 0.88 0.0 0 0 142.06 73.25
  L 138.07 73.67
  A 0.88 0.88 0.0 0 0 137.28 74.54
  L 137.31 117.57
  A 0.88 0.88 0.0 0 0 137.83 118.37
  L 141.72 120.12
  A 0.88 0.88 0.0 0 0 142.96 119.32
  L 143.03 74.13
  Z
  M 162.33 78.96
  Q 162.23 104.72 161.98 130.50
  Q 161.94 134.47 163.04 137.03
  Q 164.58 140.62 167.20 144.36
  A 0.38 0.37 -62.8 0 0 167.88 144.14
  L 167.72 78.92
  L 167.77 74.74
  Q 167.79 73.27 166.31 73.18
  Q 164.81 73.10 163.30 73.32
  Q 162.04 73.51 162.10 74.78
  L 162.33 78.96
  Z
  M 174.26 80.81
  L 174.20 138.95
  Q 174.20 140.59 175.28 139.36
  L 179.05 135.04
  Q 180.26 133.66 180.27 131.82
  L 180.44 82.26
  L 180.40 77.06
  Q 180.39 75.04 178.37 75.06
  L 175.78 75.08
  Q 173.93 75.10 174.40 76.89
  Q 174.92 78.86 174.26 80.81
  Z
  M 150.17 124.63
  A 0.71 0.71 0.0 0 0 150.38 125.13
  L 154.52 129.28
  A 0.71 0.71 0.0 0 0 155.73 128.77
  L 155.45 76.95
  A 0.71 0.71 0.0 0 0 154.76 76.24
  L 150.81 76.15
  A 0.71 0.71 0.0 0 0 150.08 76.86
  L 150.17 124.63
  Z
  M 186.68 82.61
  L 186.69 126.82
  Q 186.69 128.21 187.86 127.47
  L 192.03 124.83
  Q 192.99 124.22 192.98 123.09
  L 192.63 87.55
  L 193.02 79.36
  Q 193.09 77.89 191.62 77.94
  Q 189.83 78.00 187.97 77.53
  Q 186.60 77.18 186.62 78.60
  L 186.68 82.61
  Z"
/>
<path fill="#1a3a61" d="
  M 130.14 65.03
  A 0.79 0.79 0.0 0 1 130.93 65.82
  L 131.11 117.15
  A 0.96 0.62 89.8 0 1 130.49 118.11
  L 125.83 118.13
  A 0.96 0.62 89.8 0 1 125.21 117.17
  L 125.03 65.84
  A 0.79 0.79 0.0 0 1 125.82 65.05
  L 130.14 65.03
  Z"
/>
<path fill="#1a3a61" d="
  M 116.04 66.48
  Q 118.75 67.22 118.79 70.04
  C 118.99 85.74 118.39 101.58 118.86 117.37
  Q 118.89 118.24 118.02 118.35
  L 113.92 118.85
  Q 113.15 118.95 113.15 118.17
  L 112.94 68.22
  Q 112.93 65.90 115.22 66.30
  Q 115.63 66.37 116.04 66.48
  Z"
/>
<path fill="#0d2d4f" d="
  M 311.48 117.15
  L 311.22 68.81
  A 1.52 1.52 0.0 0 1 312.42 67.31
  L 315.26 66.71
  A 1.52 1.52 0.0 0 1 317.10 68.21
  L 316.77 117.51
  A 1.52 1.52 0.0 0 1 315.01 119.00
  L 312.76 118.64
  A 1.52 1.52 0.0 0 1 311.48 117.15
  Z"
/>
<rect fill="#0d2d4f" x="-2.68" y="-24.62" transform="translate(301.85,92.90) rotate(-0.2)" width="5.36" height="49.24" rx="1.85"/>
<path fill="#0d2d4f" d="
  M 289.13 120.31
  Q 287.02 120.78 286.93 118.62
  Q 286.12 97.36 286.97 75.84
  Q 287.06 73.61 289.24 73.15
  L 290.25 72.94
  Q 292.39 72.49 292.44 74.67
  Q 292.92 95.77 292.38 117.57
  Q 292.33 119.59 290.35 120.04
  L 289.13 120.31
  Z"
/>
<path fill="#1a3a61" d="
  M 143.03 74.13
  L 142.96 119.32
  A 0.88 0.88 0.0 0 1 141.72 120.12
  L 137.83 118.37
  A 0.88 0.88 0.0 0 1 137.31 117.57
  L 137.28 74.54
  A 0.88 0.88 0.0 0 1 138.07 73.67
  L 142.06 73.25
  A 0.88 0.88 0.0 0 1 143.03 74.13
  Z"
/>
<path fill="#0d2d4f" d="
  M 167.72 78.92
  Q 165.10 78.35 162.33 78.96
  L 162.10 74.78
  Q 162.04 73.51 163.30 73.32
  Q 164.81 73.10 166.31 73.18
  Q 167.79 73.27 167.77 74.74
  L 167.72 78.92
  Z"
/>
<path fill="#0d2d4f" d="
  M 180.44 82.26
  Q 178.29 80.69 174.26 80.81
  Q 174.92 78.86 174.40 76.89
  Q 173.93 75.10 175.78 75.08
  L 178.37 75.06
  Q 180.39 75.04 180.40 77.06
  L 180.44 82.26
  Z"
/>
<path fill="#0d2d4f" d="
  M 275.54 76.05
  L 278.80 75.96
  Q 279.92 75.93 279.92 77.05
  L 280.00 124.32
  A 3.41 3.39 -19.2 0 1 278.69 127.02
  L 276.07 129.07
  Q 274.77 130.09 274.73 128.44
  Q 274.50 118.35 274.50 109.16
  C 274.51 98.51 274.03 87.59 274.76 76.80
  Q 274.81 76.07 275.54 76.05
  Z"
/>
<path fill="#1a3a61" d="
  M 150.17 124.63
  L 150.08 76.86
  A 0.71 0.71 0.0 0 1 150.81 76.15
  L 154.76 76.24
  A 0.71 0.71 0.0 0 1 155.45 76.95
  L 155.73 128.77
  A 0.71 0.71 0.0 0 1 154.52 129.28
  L 150.38 125.13
  A 0.71 0.71 0.0 0 1 150.17 124.63
  Z"
/>
<path fill="#0d2d4f" d="
  M 192.63 87.55
  Q 192.86 85.88 192.48 84.86
  Q 192.13 83.92 190.52 83.50
  Q 188.83 83.07 186.68 82.61
  L 186.62 78.60
  Q 186.60 77.18 187.97 77.53
  Q 189.83 78.00 191.62 77.94
  Q 193.09 77.89 193.02 79.36
  L 192.63 87.55
  Z"
/>
<path fill="#0d2d4f" d="
  M 262.67 79.21
  Q 262.81 77.89 264.14 77.89
  L 266.81 77.88
  A 1.15 1.14 87.8 0 1 267.95 78.94
  C 268.29 83.50 267.66 88.12 267.82 92.71
  C 268.29 105.65 267.50 118.54 267.93 131.36
  C 268.07 135.56 265.80 138.43 263.62 141.66
  Q 262.50 143.33 262.49 141.32
  Q 262.42 114.95 262.41 88.75
  Q 262.40 81.69 262.67 79.21
  Z"
/>
<path fill="#1a3a61" d="
  M 167.72 78.92
  L 167.88 144.14
  A 0.38 0.37 -62.8 0 1 167.20 144.36
  Q 164.58 140.62 163.04 137.03
  Q 161.94 134.47 161.98 130.50
  Q 162.23 104.72 162.33 78.96
  Q 165.10 78.35 167.72 78.92
  Z"
/>
<path fill="#1a3a61" d="
  M 174.26 80.81
  Q 178.29 80.69 180.44 82.26
  L 180.27 131.82
  Q 180.26 133.66 179.05 135.04
  L 175.28 139.36
  Q 174.20 140.59 174.20 138.95
  L 174.26 80.81
  Z"
/>
<path fill="#0d2d4f" d="
  M 251.29 81.72
  L 254.19 80.86
  Q 255.52 80.47 255.54 81.86
  Q 255.81 96.56 255.66 105.52
  Q 255.40 121.69 255.13 138.02
  Q 255.12 138.60 254.81 139.07
  A 0.54 0.54 0.0 0 1 253.96 139.13
  C 252.11 137.07 249.79 135.15 249.76 132.15
  Q 249.45 101.71 249.59 90.47
  Q 249.63 87.23 249.92 83.41
  Q 250.02 82.09 251.29 81.72
  Z"
/>
<path fill="#1a3a61" d="
  M 186.68 82.61
  Q 188.83 83.07 190.52 83.50
  Q 192.13 83.92 192.48 84.86
  Q 192.86 85.88 192.63 87.55
  L 192.98 123.09
  Q 192.99 124.22 192.03 124.83
  L 187.86 127.47
  Q 186.69 128.21 186.69 126.82
  L 186.68 82.61
  Z"
/>
<path fill="#0d2d4f" d="
  M 239.84 126.36
  A 5.33 5.32 17.8 0 1 237.69 122.19
  Q 237.34 104.70 238.21 86.25
  Q 238.31 84.04 240.52 83.81
  L 242.11 83.65
  Q 244.01 83.45 244.00 85.36
  L 243.89 128.02
  Q 243.88 129.80 242.57 128.60
  Q 241.26 127.41 239.84 126.36
  Z"
/>
<path fill="#01152c" d="
  M 402.98 136.27
  Q 402.76 136.75 402.73 136.91
  A 0.70 0.70 0.0 0 0 403.45 137.73
  Q 407.94 137.50 412.12 137.87
  Q 416.20 138.23 429.06 137.66
  Q 429.37 137.72 430.00 138.34
  L 430.00 156.95
  L 403.53 157.05
  Q 403.01 157.05 403.01 157.57
  Q 402.95 174.23 403.09 194.58
  Q 403.12 199.40 402.13 202.04
  Q 400.32 206.84 395.24 208.35
  C 386.04 211.09 380.91 204.36 381.10 195.85
  Q 381.54 191.88 381.61 187.88
  Q 381.67 184.37 381.77 180.88
  Q 382.09 169.51 381.82 157.83
  A 0.47 0.47 0.0 0 0 381.16 157.42
  Q 380.58 157.68 381.10 157.74
  L 380.71 157.40
  Q 380.34 157.08 379.84 157.01
  C 376.49 156.53 372.41 156.55 370.38 159.87
  Q 365.97 167.09 361.27 172.00
  Q 356.48 177.00 346.99 179.82
  A 2.79 2.78 81.8 0 0 345.00 182.49
  L 344.98 243.78
  A 1.67 1.66 83.6 0 1 343.70 245.39
  C 340.61 246.09 337.53 246.34 334.41 247.15
  C 319.64 250.97 304.41 254.14 289.73 257.82
  Q 279.99 260.26 270.54 262.44
  Q 244.27 268.51 218.08 274.96
  Q 217.98 274.12 218.37 273.63
  Q 218.67 273.25 218.49 272.80
  Q 218.26 272.20 217.65 271.90
  Q 217.22 271.69 217.22 271.21
  Q 217.29 263.10 216.97 256.22
  Q 216.59 247.98 216.75 241.24
  Q 217.02 230.13 216.91 218.58
  C 216.83 210.14 217.18 201.73 217.13 193.27
  Q 217.09 186.87 217.54 180.26
  Q 217.99 173.76 218.38 167.25
  Q 218.67 162.63 214.94 160.83
  A 2.91 2.91 0.0 0 0 211.25 161.83
  Q 210.14 163.51 209.23 165.34
  Q 208.79 166.22 208.12 166.91
  Q 206.73 168.31 206.33 170.19
  Q 206.30 170.32 206.16 170.34
  Q 205.42 170.43 205.43 171.18
  Q 205.44 171.59 205.05 171.74
  Q 204.83 171.83 204.60 171.82
  Q 204.18 171.81 203.86 171.51
  Q 201.40 169.20 198.19 169.43
  Q 197.66 169.47 197.45 168.99
  Q 196.96 167.87 197.89 167.22
  Q 198.14 167.04 198.02 166.75
  Q 197.62 165.78 198.04 164.89
  A 0.36 0.35 -52.5 0 0 198.00 164.54
  Q 197.77 164.21 197.41 164.46
  A 0.45 0.45 0.0 0 0 197.22 164.76
  Q 196.93 166.43 195.26 165.93
  Q 197.68 162.55 200.99 155.99
  Q 202.11 153.76 205.13 151.86
  Q 215.48 145.34 224.71 152.75
  Q 227.32 154.84 228.81 157.77
  C 231.79 163.64 235.91 170.39 241.42 174.03
  Q 255.64 183.41 271.90 177.89
  C 281.55 174.62 285.49 167.77 289.43 158.97
  C 291.72 153.87 296.06 149.38 301.55 148.96
  Q 305.66 148.64 309.85 150.96
  Q 311.97 152.14 313.54 154.17
  C 318.22 160.26 323.32 165.37 331.42 166.11
  C 345.30 167.39 352.49 159.02 357.84 147.28
  C 359.48 143.70 362.79 139.28 366.91 138.45
  Q 374.34 136.93 380.42 136.97
  Q 380.99 136.97 380.99 136.40
  Q 381.01 120.15 380.96 104.62
  C 380.94 97.62 381.05 89.07 390.13 88.07
  Q 394.77 87.57 398.02 90.04
  C 402.99 93.82 402.90 98.53 402.94 104.25
  Q 403.04 120.28 402.98 136.27
  Z
  M 300.29 233.04
  L 303.25 233.02
  A 1.19 1.19 0.0 0 0 304.43 231.82
  L 304.01 172.12
  A 4.39 2.54 89.6 0 0 301.44 167.75
  L 301.18 167.75
  A 4.39 2.54 89.6 0 0 298.67 172.16
  L 299.09 231.86
  A 1.19 1.19 0.0 0 0 300.29 233.04
  Z
  M 314.83 176.90
  Q 314.10 176.05 313.13 175.52
  Q 311.16 174.44 311.24 176.69
  C 311.47 182.59 310.89 188.55 311.00 194.46
  Q 311.32 211.94 311.28 228.87
  Q 311.28 231.21 313.58 230.77
  L 315.84 230.33
  A 1.91 1.91 0.0 0 0 317.39 228.42
  L 316.73 181.85
  Q 316.69 179.03 314.83 176.90
  Z
  M 292.80 182.94
  A 1.11 1.11 0.0 0 0 291.10 181.99
  L 287.35 184.38
  A 1.11 1.11 0.0 0 0 286.84 185.31
  L 286.62 234.50
  A 1.11 1.11 0.0 0 0 287.91 235.60
  L 291.46 234.99
  A 1.11 1.11 0.0 0 0 292.38 233.90
  L 292.80 182.94
  Z
  M 243.79 192.36
  A 1.60 1.60 0.0 0 0 243.40 191.31
  L 240.55 188.04
  A 1.60 1.60 0.0 0 0 237.74 189.11
  L 238.15 245.20
  A 1.60 1.60 0.0 0 0 239.57 246.78
  L 242.05 247.06
  A 1.60 1.60 0.0 0 0 243.83 245.47
  L 243.79 192.36
  Z
  M 279.97 235.86
  L 279.93 190.24
  A 0.51 0.51 0.0 0 0 279.24 189.77
  L 276.17 190.94
  A 1.92 1.91 80.2 0 0 274.96 192.66
  Q 274.37 214.97 274.94 237.16
  Q 274.99 239.06 276.84 238.64
  L 277.95 238.39
  Q 279.97 237.93 279.97 235.86
  Z
  M 250.22 242.78
  A 1.73 1.73 0.0 0 0 252.38 244.44
  L 254.26 243.96
  A 1.73 1.73 0.0 0 0 255.56 242.28
  L 255.46 195.53
  A 1.73 1.73 0.0 0 0 253.82 193.81
  L 251.67 193.69
  A 1.73 1.73 0.0 0 0 249.85 195.44
  L 250.22 242.78
  Z
  M 268.45 195.27
  A 1.35 1.35 0.0 0 0 266.98 193.91
  L 263.50 194.22
  A 1.35 1.35 0.0 0 0 262.27 195.57
  L 262.32 240.17
  A 1.35 1.35 0.0 0 0 263.87 241.51
  L 266.92 241.05
  A 1.35 1.35 0.0 0 0 268.07 239.73
  L 268.45 195.27
  Z"
/>
<path fill="#062344" d="
  M 135.25 152.68
  Q 132.64 154.36 131.75 154.66
  Q 130.33 155.14 129.02 155.72
  C 127.60 156.36 126.54 158.47 125.51 159.77
  Q 124.72 160.77 124.31 161.94
  Q 123.13 165.29 118.91 167.44
  Q 114.12 169.89 110.03 172.03
  Q 108.71 172.71 108.03 174.03
  Q 107.52 175.01 107.24 176.52
  Q 107.19 176.82 107.26 177.11
  Q 108.15 180.49 107.86 185.25
  Q 107.63 188.88 107.87 192.11
  C 108.26 197.19 107.62 202.24 108.03 207.29
  Q 108.34 211.11 108.00 215.16
  C 107.61 219.93 108.10 224.82 108.17 229.68
  A 2.76 2.72 22.6 0 0 108.95 231.54
  Q 110.35 232.97 111.13 232.00
  Q 111.41 231.65 111.84 231.52
  Q 112.70 231.27 113.45 230.88
  Q 113.80 230.70 113.69 230.33
  Q 113.65 230.19 113.51 230.16
  Q 112.99 230.05 113.00 229.52
  L 113.21 223.04
  L 113.28 227.73
  Q 113.31 229.35 114.90 229.67
  L 117.22 230.13
  Q 118.67 230.42 118.68 228.95
  L 118.78 220.03
  L 118.70 229.83
  Q 118.70 230.34 118.31 230.65
  Q 117.78 231.08 117.13 231.15
  Q 116.34 231.23 117.04 231.60
  Q 117.36 231.77 117.68 231.90
  Q 118.22 232.12 118.04 232.66
  Q 117.80 233.47 118.12 234.31
  Q 118.28 234.74 118.69 234.97
  Q 120.03 235.73 121.17 236.78
  Q 121.68 237.26 122.55 237.26
  Q 123.29 237.26 123.81 237.75
  Q 124.33 238.25 124.09 238.99
  A 1.02 1.01 27.7 0 0 124.45 240.12
  L 125.06 240.56
  Q 125.74 241.06 125.30 241.78
  Q 124.59 242.96 125.66 243.87
  Q 126.09 244.24 126.25 244.78
  L 127.07 247.67
  Q 127.22 248.19 127.71 248.42
  Q 129.33 249.17 129.39 251.01
  Q 129.42 251.82 130.01 252.19
  Q 130.39 252.42 130.30 252.86
  Q 130.19 253.40 129.75 253.49
  Q 128.99 253.65 129.68 254.04
  Q 130.42 254.46 129.95 254.93
  L 88.23 245.32
  A 1.58 1.57 -83.6 0 1 87.01 243.78
  L 86.99 182.39
  A 2.12 2.11 -83.2 0 0 85.37 180.33
  C 83.56 179.89 81.87 179.52 80.21 178.75
  Q 70.17 174.10 63.84 164.77
  Q 61.78 161.73 59.80 158.85
  C 58.04 156.30 52.69 156.91 49.93 156.99
  A 0.88 0.87 -1.0 0 0 49.08 157.86
  Q 48.93 173.82 49.11 191.57
  C 49.19 199.63 49.53 205.85 40.35 208.71
  Q 37.85 209.49 34.90 208.47
  Q 27.70 205.98 27.30 197.36
  Q 27.75 187.48 27.93 177.75
  Q 28.10 168.36 27.50 158.81
  Q 27.85 157.78 26.35 157.26
  Q 25.52 156.98 24.61 156.98
  Q 12.73 157.03 1.06 156.97
  A 0.83 0.83 0.0 0 1 0.28 155.85
  Q 1.01 153.88 1.00 151.54
  Q 0.99 144.43 1.01 137.54
  Q 1.01 137.00 1.55 137.00
  L 27.49 137.00
  Q 28.00 137.00 28.00 136.49
  C 28.00 131.65 28.12 126.99 27.70 122.18
  Q 26.88 112.91 26.82 105.08
  C 26.79 99.61 27.32 90.48 34.06 88.78
  Q 42.72 86.59 47.44 93.16
  Q 48.98 95.30 48.97 100.75
  Q 48.94 116.03 48.95 135.59
  Q 48.95 137.20 50.55 137.03
  C 58.29 136.21 67.02 137.97 71.32 145.01
  Q 74.36 149.97 77.17 155.06
  Q 79.11 158.56 84.26 162.45
  Q 87.45 164.86 93.43 165.70
  Q 103.59 167.14 111.72 160.26
  C 114.65 157.78 116.04 154.32 118.95 152.03
  Q 127.12 145.60 135.25 152.68
  Z"
/>
<path fill="#1a3a61" d="
  M 402.98 136.27
  Q 402.91 136.42 402.93 136.60
  Q 402.98 136.99 403.38 136.99
  Q 415.81 137.00 428.25 137.01
  Q 428.69 137.01 429.06 137.66
  Q 416.20 138.23 412.12 137.87
  Q 407.94 137.50 403.45 137.73
  A 0.70 0.70 0.0 0 1 402.73 136.91
  Q 402.76 136.75 402.98 136.27
  Z"
/>
<path fill="#031a36" d="
  M 135.25 152.68
  Q 137.94 155.14 138.68 156.58
  C 143.18 165.39 146.85 172.82 156.50 176.91
  Q 169.73 182.51 182.33 177.34
  Q 190.29 174.06 195.26 165.93
  Q 196.93 166.43 197.22 164.76
  A 0.45 0.45 0.0 0 1 197.41 164.46
  Q 197.77 164.21 198.00 164.54
  A 0.36 0.35 -52.5 0 1 198.04 164.89
  Q 197.62 165.78 198.02 166.75
  Q 198.14 167.04 197.89 167.22
  Q 196.96 167.87 197.45 168.99
  Q 197.66 169.47 198.19 169.43
  Q 201.40 169.20 203.86 171.51
  Q 204.18 171.81 204.60 171.82
  Q 204.83 171.83 205.05 171.74
  Q 205.44 171.59 205.43 171.18
  Q 205.42 170.43 206.16 170.34
  Q 206.30 170.32 206.33 170.19
  Q 206.73 168.31 208.12 166.91
  Q 208.79 166.22 209.23 165.34
  Q 210.14 163.51 211.25 161.83
  A 2.91 2.91 0.0 0 1 214.94 160.83
  Q 218.67 162.63 218.38 167.25
  Q 217.99 173.76 217.54 180.26
  Q 217.09 186.87 217.13 193.27
  C 217.18 201.73 216.83 210.14 216.91 218.58
  Q 217.02 230.13 216.75 241.24
  Q 216.59 247.98 216.97 256.22
  Q 217.29 263.10 217.22 271.21
  Q 217.22 271.69 217.65 271.90
  Q 218.26 272.20 218.49 272.80
  Q 218.67 273.25 218.37 273.63
  Q 217.98 274.12 218.08 274.96
  Q 218.04 274.98 217.99 275.00
  L 215.36 275.00
  L 129.95 254.93
  Q 130.42 254.46 129.68 254.04
  Q 128.99 253.65 129.75 253.49
  Q 130.19 253.40 130.30 252.86
  Q 130.39 252.42 130.01 252.19
  Q 129.42 251.82 129.39 251.01
  Q 129.33 249.17 127.71 248.42
  Q 127.22 248.19 127.07 247.67
  L 126.25 244.78
  Q 126.09 244.24 125.66 243.87
  Q 124.59 242.96 125.30 241.78
  Q 125.74 241.06 125.06 240.56
  L 124.45 240.12
  A 1.02 1.01 27.7 0 1 124.09 238.99
  Q 124.33 238.25 123.81 237.75
  Q 123.29 237.26 122.55 237.26
  Q 121.68 237.26 121.17 236.78
  Q 120.03 235.73 118.69 234.97
  Q 118.28 234.74 118.12 234.31
  Q 117.80 233.47 118.04 232.66
  Q 118.22 232.12 117.68 231.90
  Q 117.36 231.77 117.04 231.60
  Q 116.34 231.23 117.13 231.15
  Q 117.78 231.08 118.31 230.65
  Q 118.70 230.34 118.70 229.83
  L 118.78 220.03
  L 118.72 178.80
  Q 118.72 176.44 116.73 177.71
  L 115.62 178.42
  A 5.25 5.24 -16.4 0 0 113.21 182.83
  L 113.21 223.04
  L 113.00 229.52
  Q 112.99 230.05 113.51 230.16
  Q 113.65 230.19 113.69 230.33
  Q 113.80 230.70 113.45 230.88
  Q 112.70 231.27 111.84 231.52
  Q 111.41 231.65 111.13 232.00
  Q 110.35 232.97 108.95 231.54
  A 2.76 2.72 22.6 0 1 108.17 229.68
  C 108.10 224.82 107.61 219.93 108.00 215.16
  Q 108.34 211.11 108.03 207.29
  C 107.62 202.24 108.26 197.19 107.87 192.11
  Q 107.63 188.88 107.86 185.25
  Q 108.15 180.49 107.26 177.11
  Q 107.19 176.82 107.24 176.52
  Q 107.52 175.01 108.03 174.03
  Q 108.71 172.71 110.03 172.03
  Q 114.12 169.89 118.91 167.44
  Q 123.13 165.29 124.31 161.94
  Q 124.72 160.77 125.51 159.77
  C 126.54 158.47 127.60 156.36 129.02 155.72
  Q 130.33 155.14 131.75 154.66
  Q 132.64 154.36 135.25 152.68
  Z
  M 125.17 230.94
  A 1.16 1.16 0.0 0 0 126.06 232.07
  L 129.26 232.82
  A 1.16 1.16 0.0 0 0 130.69 231.70
  L 130.89 172.86
  A 1.16 1.16 0.0 0 0 130.36 171.89
  L 126.76 169.54
  A 1.16 1.16 0.0 0 0 124.97 170.51
  L 125.17 230.94
  Z
  M 142.87 234.03
  C 142.57 219.14 142.96 204.16 143.00 189.25
  Q 143.01 186.95 142.70 184.88
  Q 142.62 184.32 142.20 183.92
  L 138.74 180.72
  A 0.44 0.44 0.0 0 0 138.01 180.99
  Q 137.65 183.74 137.60 186.50
  Q 137.19 207.71 137.27 233.16
  Q 137.27 234.44 138.54 234.67
  L 141.52 235.19
  Q 142.90 235.44 142.87 234.03
  Z
  M 192.35 222.51
  Q 193.04 206.01 192.59 188.70
  Q 192.54 187.06 191.00 187.63
  L 188.64 188.49
  Q 187.02 189.09 186.98 190.81
  Q 186.41 217.14 187.05 243.75
  A 1.93 1.93 0.0 0 0 188.68 245.61
  L 190.98 245.96
  Q 192.71 246.23 192.41 244.50
  Q 192.11 242.76 192.09 241.00
  C 192.03 234.92 192.09 228.69 192.35 222.51
  Z
  M 149.93 235.96
  A 1.05 1.05 0.0 0 0 150.66 236.96
  L 153.99 238.04
  A 1.05 1.05 0.0 0 0 155.36 237.04
  L 155.40 191.91
  A 1.05 1.05 0.0 0 0 154.83 190.98
  L 151.40 189.23
  A 1.05 1.05 0.0 0 0 149.87 190.17
  L 149.93 235.96
  Z
  M 180.32 194.39
  A 1.50 1.50 0.0 0 0 178.36 192.96
  L 175.61 193.86
  A 1.50 1.50 0.0 0 0 174.58 195.27
  L 174.14 240.99
  A 1.50 1.50 0.0 0 0 175.35 242.48
  L 178.56 243.11
  A 1.50 1.50 0.0 0 0 180.35 241.64
  L 180.32 194.39
  Z
  M 162.29 238.37
  A 1.32 1.32 0.0 0 0 163.21 239.63
  L 165.69 240.41
  A 1.32 1.32 0.0 0 0 167.40 239.15
  L 167.65 195.31
  A 1.32 1.32 0.0 0 0 166.33 193.98
  L 163.57 193.98
  A 1.32 1.32 0.0 0 0 162.25 195.30
  L 162.29 238.37
  Z"
/>
<path fill="#1a3a61" d="
  M 381.10 195.85
  L 381.10 157.74
  Q 380.58 157.68 381.16 157.42
  A 0.47 0.47 0.0 0 1 381.82 157.83
  Q 382.09 169.51 381.77 180.88
  Q 381.67 184.37 381.61 187.88
  Q 381.54 191.88 381.10 195.85
  Z"
/>
<path fill="#1a3a61" d="
  M 27.50 158.81
  Q 28.10 168.36 27.93 177.75
  Q 27.75 187.48 27.30 197.36
  Q 25.93 178.11 27.50 158.81
  Z"
/>
<path fill="#062344" d="
  M 300.29 233.04
  A 1.19 1.19 0.0 0 1 299.09 231.86
  L 298.67 172.16
  A 4.39 2.54 89.6 0 1 301.18 167.75
  L 301.44 167.75
  A 4.39 2.54 89.6 0 1 304.01 172.12
  L 304.43 231.82
  A 1.19 1.19 0.0 0 1 303.25 233.02
  L 300.29 233.04
  Z"
/>
<path fill="#1a3a61" d="
  M 125.17 230.94
  L 124.97 170.51
  A 1.16 1.16 0.0 0 1 126.76 169.54
  L 130.36 171.89
  A 1.16 1.16 0.0 0 1 130.89 172.86
  L 130.69 231.70
  A 1.16 1.16 0.0 0 1 129.26 232.82
  L 126.06 232.07
  A 1.16 1.16 0.0 0 1 125.17 230.94
  Z"
/>
<path fill="#062344" d="
  M 314.83 176.90
  Q 316.69 179.03 316.73 181.85
  L 317.39 228.42
  A 1.91 1.91 0.0 0 1 315.84 230.33
  L 313.58 230.77
  Q 311.28 231.21 311.28 228.87
  Q 311.32 211.94 311.00 194.46
  C 310.89 188.55 311.47 182.59 311.24 176.69
  Q 311.16 174.44 313.13 175.52
  Q 314.10 176.05 314.83 176.90
  Z"
/>
<path fill="#1a3a61" d="
  M 118.78 220.03
  L 118.68 228.95
  Q 118.67 230.42 117.22 230.13
  L 114.90 229.67
  Q 113.31 229.35 113.28 227.73
  L 113.21 223.04
  L 113.21 182.83
  A 5.25 5.24 -16.4 0 1 115.62 178.42
  L 116.73 177.71
  Q 118.72 176.44 118.72 178.80
  L 118.78 220.03
  Z"
/>
<path fill="#1a3a61" d="
  M 143.00 189.25
  C 142.96 204.16 142.57 219.14 142.87 234.03
  Q 142.90 235.44 141.52 235.19
  L 138.54 234.67
  Q 137.27 234.44 137.27 233.16
  Q 137.19 207.71 137.60 186.50
  Q 137.65 183.74 138.01 180.99
  A 0.44 0.44 0.0 0 1 138.74 180.72
  L 142.20 183.92
  Q 142.62 184.32 142.70 184.88
  Q 143.01 186.95 143.00 189.25
  Z"
/>
<path fill="#062344" d="
  M 292.80 182.94
  L 292.38 233.90
  A 1.11 1.11 0.0 0 1 291.46 234.99
  L 287.91 235.60
  A 1.11 1.11 0.0 0 1 286.62 234.50
  L 286.84 185.31
  A 1.11 1.11 0.0 0 1 287.35 184.38
  L 291.10 181.99
  A 1.11 1.11 0.0 0 1 292.80 182.94
  Z"
/>
<path fill="#0d2d4f" d="
  M 243.79 192.36
  L 243.83 245.47
  A 1.60 1.60 0.0 0 1 242.05 247.06
  L 239.57 246.78
  A 1.60 1.60 0.0 0 1 238.15 245.20
  L 237.74 189.11
  A 1.60 1.60 0.0 0 1 240.55 188.04
  L 243.40 191.31
  A 1.60 1.60 0.0 0 1 243.79 192.36
  Z"
/>
<path fill="#0d2d4f" d="
  M 192.35 222.51
  C 192.09 228.69 192.03 234.92 192.09 241.00
  Q 192.11 242.76 192.41 244.50
  Q 192.71 246.23 190.98 245.96
  L 188.68 245.61
  A 1.93 1.93 0.0 0 1 187.05 243.75
  Q 186.41 217.14 186.98 190.81
  Q 187.02 189.09 188.64 188.49
  L 191.00 187.63
  Q 192.54 187.06 192.59 188.70
  Q 193.04 206.01 192.35 222.51
  Z"
/>
<path fill="#1a3a61" d="
  M 149.93 235.96
  L 149.87 190.17
  A 1.05 1.05 0.0 0 1 151.40 189.23
  L 154.83 190.98
  A 1.05 1.05 0.0 0 1 155.40 191.91
  L 155.36 237.04
  A 1.05 1.05 0.0 0 1 153.99 238.04
  L 150.66 236.96
  A 1.05 1.05 0.0 0 1 149.93 235.96
  Z"
/>
<path fill="#0d2d4f" d="
  M 279.93 190.24
  L 279.97 235.86
  Q 279.97 237.93 277.95 238.39
  L 276.84 238.64
  Q 274.99 239.06 274.94 237.16
  Q 274.37 214.97 274.96 192.66
  A 1.92 1.91 80.2 0 1 276.17 190.94
  L 279.24 189.77
  A 0.51 0.51 0.0 0 1 279.93 190.24
  Z"
/>
<path fill="#0d2d4f" d="
  M 180.32 194.39
  L 180.35 241.64
  A 1.50 1.50 0.0 0 1 178.56 243.11
  L 175.35 242.48
  A 1.50 1.50 0.0 0 1 174.14 240.99
  L 174.58 195.27
  A 1.50 1.50 0.0 0 1 175.61 193.86
  L 178.36 192.96
  A 1.50 1.50 0.0 0 1 180.32 194.39
  Z"
/>
<path fill="#0d2d4f" d="
  M 250.22 242.78
  L 249.85 195.44
  A 1.73 1.73 0.0 0 1 251.67 193.69
  L 253.82 193.81
  A 1.73 1.73 0.0 0 1 255.46 195.53
  L 255.56 242.28
  A 1.73 1.73 0.0 0 1 254.26 243.96
  L 252.38 244.44
  A 1.73 1.73 0.0 0 1 250.22 242.78
  Z"
/>
<path fill="#1a3a61" d="
  M 162.29 238.37
  L 162.25 195.30
  A 1.32 1.32 0.0 0 1 163.57 193.98
  L 166.33 193.98
  A 1.32 1.32 0.0 0 1 167.65 195.31
  L 167.40 239.15
  A 1.32 1.32 0.0 0 1 165.69 240.41
  L 163.21 239.63
  A 1.32 1.32 0.0 0 1 162.29 238.37
  Z"
/>
<path fill="#0d2d4f" d="
  M 268.45 195.27
  L 268.07 239.73
  A 1.35 1.35 0.0 0 1 266.92 241.05
  L 263.87 241.51
  A 1.35 1.35 0.0 0 1 262.32 240.17
  L 262.27 195.57
  A 1.35 1.35 0.0 0 1 263.50 194.22
  L 266.98 193.91
  A 1.35 1.35 0.0 0 1 268.45 195.27
  Z"
/>
</svg>
