<?xml version="1.0" encoding="UTF-8" standalone="no"?>
<!DOCTYPE svg PUBLIC "-//W3C//DTD SVG 1.1//EN" "http://www.w3.org/Graphics/SVG/1.1/DTD/svg11.dtd">
<svg xmlns="http://www.w3.org/2000/svg" version="1.1" viewBox="0.00 0.00 592.00 664.00">
<g stroke-width="2.00" fill="none" stroke-linecap="butt">
<path stroke="#7e8485" vector-effect="non-scaling-stroke" d="
  M 491.19 253.00
  Q 489.41 253.43 489.39 255.25
  Q 489.27 265.25 489.28 275.25
  Q 489.30 320.85 489.40 366.47"
/>
<path stroke="#7e8485" vector-effect="non-scaling-stroke" d="
  M 489.42 426.03
  L 489.81 484.02"
/>
<path stroke="#7e8485" vector-effect="non-scaling-stroke" d="
  M 533.47 376.36
  Q 534.34 376.26 534.85 376.42
  Q 535.35 376.57 535.35 377.09
  L 535.42 389.96"
/>
<path stroke="#7e8485" vector-effect="non-scaling-stroke" d="
  M 535.49 442.52
  L 535.01 470.69"
/>
<path stroke="#7e8485" vector-effect="non-scaling-stroke" d="
  M 532.83 352.02
  Q 533.38 351.35 534.29 350.87
  Q 534.73 350.65 534.91 350.18
  Q 535.39 348.93 535.38 348.00
  Q 535.25 332.39 535.11 316.78
  Q 535.11 316.68 535.37 310.75
  Q 535.51 307.60 534.97 304.37"
/>
<path stroke="#7e8485" vector-effect="non-scaling-stroke" d="
  M 483.93 564.41
  L 481.72 568.72"
/>
<path stroke="#7e8485" vector-effect="non-scaling-stroke" d="
  M 350.40 158.47
  Q 333.33 167.61 315.46 177.26
  Q 312.55 178.84 309.58 179.99
  A 0.31 0.31 0.0 0 0 309.53 180.54
  Q 319.87 186.84 331.55 192.38
  Q 332.05 192.62 332.53 192.36
  L 371.31 172.04
  A 2.64 2.64 0.0 0 1 373.79 172.04
  L 396.69 184.27
  A 0.68 0.67 -43.7 0 0 397.32 184.28
  Q 415.36 175.06 433.55 165.13
  Q 438.57 162.38 443.42 160.20
  A 0.43 0.43 0.0 0 0 443.44 159.42
  L 420.27 147.20
  Q 419.79 146.95 419.33 147.21
  L 398.07 158.68
  Q 397.61 158.93 397.15 158.69
  L 303.96 110.52
  Q 303.50 110.28 303.06 110.53
  L 260.30 134.38
  A 0.46 0.45 43.9 0 0 260.32 135.18
  Q 281.26 146.17 301.57 158.05
  Q 302.02 158.31 302.47 158.04
  Q 313.87 151.34 326.11 145.51
  A 1.04 1.02 -43.2 0 1 327.05 145.53
  L 350.40 158.15
  A 0.18 0.18 0.0 0 1 350.40 158.47"
/>
<path stroke="#7e8485" vector-effect="non-scaling-stroke" d="
  M 157.02 218.22
  L 242.98 171.64
  A 2.34 2.34 0.0 0 1 245.01 171.54
  L 254.21 175.40
  Q 254.76 175.63 254.89 176.21
  Q 257.51 188.09 268.61 189.15
  Q 272.67 189.53 276.22 188.14
  C 287.89 183.54 289.20 168.31 279.48 161.06
  C 274.52 157.36 269.48 155.68 263.81 159.58
  Q 263.09 160.08 262.32 159.67
  L 242.06 148.87
  A 0.88 0.87 44.0 0 0 241.23 148.88
  L 135.34 206.73
  A 0.99 0.96 76.4 0 0 134.84 207.57
  L 134.71 237.44
  Q 134.70 238.05 135.24 238.34
  Q 145.85 244.07 156.64 248.95
  Q 156.92 249.08 156.92 248.77
  L 156.63 218.87
  Q 156.63 218.43 157.02 218.22"
/>
<path stroke="#7e8485" vector-effect="non-scaling-stroke" d="
  M 449.54 213.87
  Q 449.29 215.03 449.06 216.22
  C 447.85 222.31 450.49 229.06 454.82 232.70
  Q 460.73 237.68 468.85 236.57
  C 477.29 235.41 482.35 229.50 483.53 221.29
  Q 485.54 207.42 473.88 201.49
  C 470.08 199.56 466.15 197.92 462.46 195.92
  Q 453.24 190.93 443.55 186.50
  Q 442.74 186.14 441.98 186.60
  Q 432.89 192.18 422.15 197.25
  A 0.57 0.56 -41.9 0 0 422.09 198.24
  Q 429.09 202.59 437.61 206.62
  C 441.53 208.47 445.24 210.82 449.06 212.84
  Q 449.69 213.17 449.54 213.87"
/>
<path stroke="#7e8485" vector-effect="non-scaling-stroke" d="
  M 278.70 229.01
  A 0.28 0.28 0.0 0 1 278.71 228.51
  L 298.38 218.46
  Q 299.29 218.00 300.22 218.43
  L 314.55 225.16
  A 1.28 1.28 0.0 0 1 315.28 226.23
  C 315.90 235.53 321.89 240.72 330.87 240.64
  C 337.64 240.59 343.72 237.90 346.06 231.23
  C 346.96 228.67 347.61 226.19 347.35 223.40
  Q 346.72 216.70 340.95 211.50
  C 337.10 208.03 330.94 206.81 326.49 209.23
  A 1.61 1.60 42.8 0 1 325.06 209.28
  Q 313.00 203.66 301.54 197.88
  C 300.36 197.28 299.47 196.34 298.40 195.58
  A 0.94 0.93 46.6 0 0 297.34 195.55
  Q 294.61 197.28 291.91 198.68
  Q 279.92 204.90 269.26 210.22
  Q 265.72 211.99 262.44 214.27
  Q 262.02 214.55 261.60 214.28
  C 255.25 210.20 248.06 207.19 241.23 203.69
  C 239.55 202.83 238.51 200.92 236.35 202.42
  C 235.48 203.03 234.80 203.83 233.82 204.33
  Q 217.03 212.94 199.08 221.92
  C 193.28 224.82 187.57 228.06 181.72 230.97
  A 0.87 0.86 76.5 0 0 181.25 231.74
  L 181.18 371.94
  Q 181.18 373.58 182.63 374.36
  L 202.20 384.88
  A 0.25 0.25 0.0 0 0 202.57 384.65
  Q 202.40 380.71 202.39 377.55
  Q 202.15 306.77 202.11 244.75
  A 0.51 0.50 -13.4 0 1 202.39 244.30
  Q 219.54 235.31 236.37 226.12
  Q 238.24 225.10 240.14 226.15
  Q 251.77 232.65 263.19 237.80
  A 0.54 0.54 0.0 0 1 263.20 238.78
  Q 245.27 247.33 227.39 257.27
  A 2.17 2.17 0.0 0 0 226.27 259.17
  L 226.27 371.22
  Q 226.27 371.66 226.63 371.92
  Q 229.87 374.30 233.53 376.20
  Q 267.06 393.60 297.64 410.06
  Q 299.48 411.05 301.24 411.64
  Q 301.72 411.80 302.18 411.58
  Q 307.24 409.24 312.20 406.64
  Q 336.81 393.68 361.15 380.89
  Q 361.67 380.61 361.67 380.02
  L 361.76 323.59
  A 0.50 0.49 -14.2 0 0 361.03 323.16
  L 341.73 333.48
  A 0.98 0.98 0.0 0 0 341.21 334.36
  L 341.46 365.67
  Q 341.47 366.93 340.34 367.51
  L 302.01 387.15
  Q 301.58 387.37 301.15 387.13
  Q 275.19 372.84 248.78 360.05
  A 1.73 1.73 0.0 0 1 247.80 358.49
  L 247.84 272.31
  A 1.44 1.44 0.0 0 1 248.78 270.96
  Q 250.87 270.20 252.97 269.09
  Q 279.73 254.97 304.17 242.63
  A 0.42 0.42 0.0 0 0 304.11 241.85
  Q 300.38 240.65 296.92 238.83
  Q 287.44 233.88 278.70 229.01"
/>
<path stroke="#7e8485" vector-effect="non-scaling-stroke" d="
  M 384.12 225.38
  Q 379.63 227.73 375.18 230.11
  Q 323.76 257.64 281.69 279.11
  Q 279.76 280.10 277.72 281.04
  A 0.28 0.28 0.0 0 0 277.71 281.54
  L 299.70 293.25
  Q 300.38 293.61 301.06 293.25
  Q 311.03 287.91 320.43 282.87
  Q 368.05 257.36 419.60 229.81
  Q 423.85 227.53 428.55 225.44
  A 0.89 0.89 0.0 0 0 428.60 223.84
  L 374.22 195.57
  A 2.15 2.12 -44.9 0 0 372.23 195.58
  L 351.28 206.75
  Q 350.65 207.09 351.29 207.41
  L 384.11 224.07
  A 0.74 0.74 0.0 0 1 384.12 225.38"
/>
<path stroke="#7e8485" vector-effect="non-scaling-stroke" d="
  M 466.15 287.38
  A 0.30 0.30 0.0 0 0 466.31 287.12
  L 466.61 263.22
  A 0.30 0.30 0.0 0 0 466.18 262.95
  L 429.15 282.13
  A 0.30 0.30 0.0 0 0 428.99 282.39
  L 429.09 306.03
  A 0.30 0.30 0.0 0 0 429.53 306.30
  L 466.15 287.38"
/>
<path stroke="#7e8485" vector-effect="non-scaling-stroke" d="
  M 100.37 295.31
  Q 99.62 294.94 98.95 294.71
  Q 98.50 294.56 98.50 295.04
  L 98.43 318.77
  A 1.07 1.06 -76.0 0 0 98.99 319.71
  Q 121.93 332.31 146.08 345.16
  Q 148.82 346.61 151.51 346.01
  Q 160.43 344.04 161.27 335.42
  C 161.74 330.65 159.20 325.86 155.12 323.57
  C 146.46 318.70 137.19 314.33 128.38 309.70
  C 119.07 304.80 109.78 299.98 100.37 295.31"
/>
<path stroke="#7e8485" vector-effect="non-scaling-stroke" d="
  M 406.21 296.40
  A 0.34 0.34 0.0 0 0 405.71 296.09
  L 385.64 306.38
  A 0.34 0.34 0.0 0 0 385.45 306.68
  L 385.50 369.29
  A 0.34 0.34 0.0 0 0 385.99 369.60
  L 405.96 359.68
  A 0.34 0.34 0.0 0 0 406.15 359.38
  L 406.21 296.40"
/>
<path stroke="#7e8485" vector-effect="non-scaling-stroke" d="
  M 438.1298 340.6617
  A 13.01 12.63 102.7 0 0 453.3110 330.7467
  A 13.01 12.63 102.7 0 0 443.8502 315.2783
  A 13.01 12.63 102.7 0 0 428.6690 325.1933
  A 13.01 12.63 102.7 0 0 438.1298 340.6617"
/>
<path stroke="#7e8485" vector-effect="non-scaling-stroke" d="
  M 224.26 421.54
  Q 230.45 424.50 237.31 428.13
  Q 267.74 444.21 296.18 459.27
  Q 298.73 460.62 301.29 461.59
  Q 301.76 461.77 302.21 461.53
  Q 370.09 425.64 438.12 389.58
  Q 441.57 387.75 445.05 386.09
  A 0.48 0.48 0.0 0 1 445.74 386.52
  L 445.55 457.62
  A 1.27 1.26 -14.3 0 1 444.89 458.73
  L 303.37 536.02
  Q 302.84 536.31 302.83 536.91
  L 302.68 559.56
  A 0.77 0.77 0.0 0 0 303.82 560.24
  Q 346.27 537.43 386.10 515.24
  C 411.10 501.31 436.27 487.65 460.69 473.91
  Q 462.02 473.16 466.07 471.13
  Q 466.47 470.93 466.47 470.49
  L 466.52 349.96
  A 0.33 0.33 0.0 0 0 466.03 349.67
  Q 426.23 371.41 386.01 392.74
  Q 344.78 414.60 303.70 436.29
  C 303.22 436.55 302.72 437.07 302.25 437.38
  Q 301.79 437.68 301.35 437.35
  Q 299.42 435.83 297.11 434.59
  Q 253.12 410.92 203.10 385.49
  A 0.30 0.30 0.0 0 0 202.67 385.76
  L 202.49 457.73
  Q 202.49 458.34 203.02 458.62
  Q 243.49 480.28 281.19 500.57
  Q 291.13 505.92 301.05 511.56
  A 0.97 0.97 0.0 0 0 301.99 511.56
  L 361.15 479.01
  Q 361.64 478.74 361.64 478.18
  L 361.71 454.94
  A 0.35 0.35 0.0 0 0 361.19 454.63
  L 301.95 486.42
  Q 301.63 486.59 301.31 486.42
  L 224.57 445.05
  Q 224.06 444.78 224.06 444.21
  L 223.91 421.76
  Q 223.91 421.38 224.26 421.54"
/>
<path stroke="#7e8485" vector-effect="non-scaling-stroke" d="
  M 118.76 434.95
  Q 118.76 433.21 120.28 434.05
  L 179.12 466.45
  A 0.49 0.48 -75.7 0 0 179.84 466.02
  L 179.56 441.12
  Q 179.55 440.59 179.12 440.29
  Q 174.10 436.79 168.48 433.79
  Q 133.71 415.28 99.26 396.95
  A 0.62 0.62 0.0 0 0 98.35 397.49
  L 98.26 447.23
  A 0.91 0.89 15.0 0 0 98.72 448.01
  L 118.03 458.94
  A 0.48 0.48 0.0 0 0 118.75 458.52
  L 118.76 434.95"
/>
<path stroke="#7e8485" vector-effect="non-scaling-stroke" d="
  M 397.7043 460.7246
  A 14.73 13.95 94.5 0 0 412.7670 447.1345
  A 14.73 13.95 94.5 0 0 400.0157 431.3554
  A 14.73 13.95 94.5 0 0 384.9530 444.9455
  A 14.73 13.95 94.5 0 0 397.7043 460.7246"
/>
<path stroke="#7e8485" vector-effect="non-scaling-stroke" d="
  M 189.90 475.88
  C 187.15 474.41 184.35 473.15 181.50 471.95
  Q 181.00 471.74 181.00 472.29
  L 181.01 494.78
  A 1.27 1.26 14.3 0 0 181.67 495.89
  Q 217.26 515.58 253.59 535.23
  C 258.38 537.82 264.53 535.34 266.93 530.86
  C 270.90 523.47 266.01 516.72 259.41 513.33
  Q 248.83 507.90 237.68 501.77
  Q 215.58 489.61 189.90 475.88"
/>
</g>
<path fill="#000a0f" d="
  M 299.59 0.00
  L 303.35 0.00
  C 312.33 1.97 314.03 11.85 306.45 16.69
  Q 301.14 20.09 296.56 15.68
  Q 291.69 11.01 294.18 4.94
  Q 295.62 1.41 299.59 0.00
  Z"
/>
<circle fill="#000a0f" cx="236.89" cy="40.46" r="17.06"/>
<ellipse fill="#000a0f" cx="0.00" cy="0.00" transform="translate(361.53,41.46) rotate(86.7)" rx="10.69" ry="9.87"/>
<ellipse fill="#000a0f" cx="0.00" cy="0.00" transform="translate(409.43,74.81) rotate(72.6)" rx="13.54" ry="13.25"/>
<path fill="#000a0f" d="
  M 491.19 253.00
  Q 489.41 253.43 489.39 255.25
  Q 489.27 265.25 489.28 275.25
  Q 489.30 320.85 489.40 366.47
  Q 488.53 396.26 489.42 426.03
  L 489.81 484.02
  Q 491.45 484.36 492.58 482.98
  Q 492.89 482.61 493.33 482.39
  Q 500.56 478.81 507.72 474.20
  Q 508.85 473.47 510.16 473.10
  A 0.96 0.95 -3.9 0 0 510.85 472.32
  Q 511.10 470.75 511.07 469.25
  Q 510.52 435.53 510.90 393.50
  Q 510.93 391.21 511.20 388.95
  Q 511.26 388.43 511.72 388.18
  L 533.47 376.36
  Q 534.34 376.26 534.85 376.42
  Q 535.35 376.57 535.35 377.09
  L 535.42 389.96
  Q 534.46 416.26 535.49 442.52
  L 535.01 470.69
  Q 521.90 479.07 508.40 486.22
  Q 495.59 493.01 490.80 495.70
  Q 462.08 511.85 432.03 528.72
  Q 414.49 538.56 398.83 547.38
  Q 370.15 563.52 339.57 580.59
  C 333.58 583.93 328.00 587.38 321.73 590.74
  Q 312.48 595.69 302.87 601.43
  Q 302.39 601.71 301.95 601.39
  Q 300.07 600.01 297.89 598.93
  C 290.36 595.19 283.52 590.49 276.30 586.48
  Q 245.82 569.52 215.06 552.51
  Q 206.57 547.82 197.65 542.69
  Q 147.35 513.81 76.50 474.44
  Q 74.89 473.55 73.13 472.49
  A 2.44 2.42 -74.6 0 1 71.94 470.38
  Q 72.16 408.47 71.85 364.20
  Q 71.82 360.84 71.57 356.93
  A 0.67 0.67 0.0 0 1 72.56 356.29
  Q 102.43 372.13 131.45 386.78
  Q 132.19 387.15 132.66 388.16
  Q 133.00 388.91 133.05 389.76
  C 133.27 393.99 136.67 395.97 139.94 397.93
  Q 146.36 401.76 153.03 398.01
  Q 158.37 395.01 159.73 389.30
  Q 160.79 384.88 159.78 381.38
  Q 157.96 375.11 152.81 372.43
  C 149.77 370.84 146.40 370.90 143.27 369.21
  Q 108.12 350.22 74.14 332.50
  Q 71.99 331.38 71.99 328.96
  L 72.01 255.88
  Q 72.01 254.57 73.15 255.22
  Q 82.96 260.84 92.84 265.79
  Q 114.65 276.73 135.82 288.18
  Q 145.78 293.56 156.52 298.76
  Q 157.02 299.01 157.02 298.45
  L 157.02 275.73
  A 2.22 2.22 0.0 0 0 155.74 273.72
  Q 144.29 268.43 133.38 262.69
  Q 124.85 258.21 115.96 253.55
  Q 107.23 248.99 98.52 244.46
  Q 85.81 237.85 76.38 233.06
  Q 74.46 232.08 72.66 230.85
  A 1.75 1.74 17.2 0 1 71.90 229.41
  L 71.95 187.11
  Q 71.95 186.50 72.49 186.20
  Q 110.50 165.32 148.88 144.89
  Q 155.05 141.61 166.46 135.33
  C 174.82 130.72 183.28 126.30 191.69 121.65
  Q 219.04 106.50 249.38 90.02
  Q 253.76 87.64 258.70 84.94
  Q 278.08 74.36 300.28 62.71
  A 3.42 3.39 44.9 0 1 303.47 62.72
  Q 364.46 95.00 424.72 127.25
  Q 462.65 147.54 499.64 167.17
  Q 506.25 170.68 513.04 174.27
  C 520.19 178.05 527.44 181.57 534.27 185.77
  A 1.63 1.62 -74.0 0 1 535.04 187.17
  Q 534.90 230.87 535.14 274.58
  Q 535.15 276.78 534.61 278.74
  Q 534.48 279.20 534.06 279.45
  Q 523.39 285.66 511.99 290.91
  Q 511.17 291.29 511.09 290.38
  Q 510.74 286.24 510.75 282.25
  Q 510.75 263.96 511.03 243.76
  A 0.86 0.86 0.0 0 0 509.79 242.98
  C 507.57 244.06 505.82 245.68 503.58 246.75
  Q 497.29 249.76 491.19 253.00
  Z
  M 350.40 158.47
  Q 333.33 167.61 315.46 177.26
  Q 312.55 178.84 309.58 179.99
  A 0.31 0.31 0.0 0 0 309.53 180.54
  Q 319.87 186.84 331.55 192.38
  Q 332.05 192.62 332.53 192.36
  L 371.31 172.04
  A 2.64 2.64 0.0 0 1 373.79 172.04
  L 396.69 184.27
  A 0.68 0.67 -43.7 0 0 397.32 184.28
  Q 415.36 175.06 433.55 165.13
  Q 438.57 162.38 443.42 160.20
  A 0.43 0.43 0.0 0 0 443.44 159.42
  L 420.27 147.20
  Q 419.79 146.95 419.33 147.21
  L 398.07 158.68
  Q 397.61 158.93 397.15 158.69
  L 303.96 110.52
  Q 303.50 110.28 303.06 110.53
  L 260.30 134.38
  A 0.46 0.45 43.9 0 0 260.32 135.18
  Q 281.26 146.17 301.57 158.05
  Q 302.02 158.31 302.47 158.04
  Q 313.87 151.34 326.11 145.51
  A 1.04 1.02 -43.2 0 1 327.05 145.53
  L 350.40 158.15
  A 0.18 0.18 0.0 0 1 350.40 158.47
  Z
  M 157.02 218.22
  L 242.98 171.64
  A 2.34 2.34 0.0 0 1 245.01 171.54
  L 254.21 175.40
  Q 254.76 175.63 254.89 176.21
  Q 257.51 188.09 268.61 189.15
  Q 272.67 189.53 276.22 188.14
  C 287.89 183.54 289.20 168.31 279.48 161.06
  C 274.52 157.36 269.48 155.68 263.81 159.58
  Q 263.09 160.08 262.32 159.67
  L 242.06 148.87
  A 0.88 0.87 44.0 0 0 241.23 148.88
  L 135.34 206.73
  A 0.99 0.96 76.4 0 0 134.84 207.57
  L 134.71 237.44
  Q 134.70 238.05 135.24 238.34
  Q 145.85 244.07 156.64 248.95
  Q 156.92 249.08 156.92 248.77
  L 156.63 218.87
  Q 156.63 218.43 157.02 218.22
  Z
  M 449.54 213.87
  Q 449.29 215.03 449.06 216.22
  C 447.85 222.31 450.49 229.06 454.82 232.70
  Q 460.73 237.68 468.85 236.57
  C 477.29 235.41 482.35 229.50 483.53 221.29
  Q 485.54 207.42 473.88 201.49
  C 470.08 199.56 466.15 197.92 462.46 195.92
  Q 453.24 190.93 443.55 186.50
  Q 442.74 186.14 441.98 186.60
  Q 432.89 192.18 422.15 197.25
  A 0.57 0.56 -41.9 0 0 422.09 198.24
  Q 429.09 202.59 437.61 206.62
  C 441.53 208.47 445.24 210.82 449.06 212.84
  Q 449.69 213.17 449.54 213.87
  Z
  M 278.70 229.01
  A 0.28 0.28 0.0 0 1 278.71 228.51
  L 298.38 218.46
  Q 299.29 218.00 300.22 218.43
  L 314.55 225.16
  A 1.28 1.28 0.0 0 1 315.28 226.23
  C 315.90 235.53 321.89 240.72 330.87 240.64
  C 337.64 240.59 343.72 237.90 346.06 231.23
  C 346.96 228.67 347.61 226.19 347.35 223.40
  Q 346.72 216.70 340.95 211.50
  C 337.10 208.03 330.94 206.81 326.49 209.23
  A 1.61 1.60 42.8 0 1 325.06 209.28
  Q 313.00 203.66 301.54 197.88
  C 300.36 197.28 299.47 196.34 298.40 195.58
  A 0.94 0.93 46.6 0 0 297.34 195.55
  Q 294.61 197.28 291.91 198.68
  Q 279.92 204.90 269.26 210.22
  Q 265.72 211.99 262.44 214.27
  Q 262.02 214.55 261.60 214.28
  C 255.25 210.20 248.06 207.19 241.23 203.69
  C 239.55 202.83 238.51 200.92 236.35 202.42
  C 235.48 203.03 234.80 203.83 233.82 204.33
  Q 217.03 212.94 199.08 221.92
  C 193.28 224.82 187.57 228.06 181.72 230.97
  A 0.87 0.86 76.5 0 0 181.25 231.74
  L 181.18 371.94
  Q 181.18 373.58 182.63 374.36
  L 202.20 384.88
  A 0.25 0.25 0.0 0 0 202.57 384.65
  Q 202.40 380.71 202.39 377.55
  Q 202.15 306.77 202.11 244.75
  A 0.51 0.50 -13.4 0 1 202.39 244.30
  Q 219.54 235.31 236.37 226.12
  Q 238.24 225.10 240.14 226.15
  Q 251.77 232.65 263.19 237.80
  A 0.54 0.54 0.0 0 1 263.20 238.78
  Q 245.27 247.33 227.39 257.27
  A 2.17 2.17 0.0 0 0 226.27 259.17
  L 226.27 371.22
  Q 226.27 371.66 226.63 371.92
  Q 229.87 374.30 233.53 376.20
  Q 267.06 393.60 297.64 410.06
  Q 299.48 411.05 301.24 411.64
  Q 301.72 411.80 302.18 411.58
  Q 307.24 409.24 312.20 406.64
  Q 336.81 393.68 361.15 380.89
  Q 361.67 380.61 361.67 380.02
  L 361.76 323.59
  A 0.50 0.49 -14.2 0 0 361.03 323.16
  L 341.73 333.48
  A 0.98 0.98 0.0 0 0 341.21 334.36
  L 341.46 365.67
  Q 341.47 366.93 340.34 367.51
  L 302.01 387.15
  Q 301.58 387.37 301.15 387.13
  Q 275.19 372.84 248.78 360.05
  A 1.73 1.73 0.0 0 1 247.80 358.49
  L 247.84 272.31
  A 1.44 1.44 0.0 0 1 248.78 270.96
  Q 250.87 270.20 252.97 269.09
  Q 279.73 254.97 304.17 242.63
  A 0.42 0.42 0.0 0 0 304.11 241.85
  Q 300.38 240.65 296.92 238.83
  Q 287.44 233.88 278.70 229.01
  Z
  M 384.12 225.38
  Q 379.63 227.73 375.18 230.11
  Q 323.76 257.64 281.69 279.11
  Q 279.76 280.10 277.72 281.04
  A 0.28 0.28 0.0 0 0 277.71 281.54
  L 299.70 293.25
  Q 300.38 293.61 301.06 293.25
  Q 311.03 287.91 320.43 282.87
  Q 368.05 257.36 419.60 229.81
  Q 423.85 227.53 428.55 225.44
  A 0.89 0.89 0.0 0 0 428.60 223.84
  L 374.22 195.57
  A 2.15 2.12 -44.9 0 0 372.23 195.58
  L 351.28 206.75
  Q 350.65 207.09 351.29 207.41
  L 384.11 224.07
  A 0.74 0.74 0.0 0 1 384.12 225.38
  Z
  M 466.15 287.38
  A 0.30 0.30 0.0 0 0 466.31 287.12
  L 466.61 263.22
  A 0.30 0.30 0.0 0 0 466.18 262.95
  L 429.15 282.13
  A 0.30 0.30 0.0 0 0 428.99 282.39
  L 429.09 306.03
  A 0.30 0.30 0.0 0 0 429.53 306.30
  L 466.15 287.38
  Z
  M 100.37 295.31
  Q 99.62 294.94 98.95 294.71
  Q 98.50 294.56 98.50 295.04
  L 98.43 318.77
  A 1.07 1.06 -76.0 0 0 98.99 319.71
  Q 121.93 332.31 146.08 345.16
  Q 148.82 346.61 151.51 346.01
  Q 160.43 344.04 161.27 335.42
  C 161.74 330.65 159.20 325.86 155.12 323.57
  C 146.46 318.70 137.19 314.33 128.38 309.70
  C 119.07 304.80 109.78 299.98 100.37 295.31
  Z
  M 406.21 296.40
  A 0.34 0.34 0.0 0 0 405.71 296.09
  L 385.64 306.38
  A 0.34 0.34 0.0 0 0 385.45 306.68
  L 385.50 369.29
  A 0.34 0.34 0.0 0 0 385.99 369.60
  L 405.96 359.68
  A 0.34 0.34 0.0 0 0 406.15 359.38
  L 406.21 296.40
  Z
  M 438.1298 340.6617
  A 13.01 12.63 102.7 0 0 453.3110 330.7467
  A 13.01 12.63 102.7 0 0 443.8502 315.2783
  A 13.01 12.63 102.7 0 0 428.6690 325.1933
  A 13.01 12.63 102.7 0 0 438.1298 340.6617
  Z
  M 224.26 421.54
  Q 230.45 424.50 237.31 428.13
  Q 267.74 444.21 296.18 459.27
  Q 298.73 460.62 301.29 461.59
  Q 301.76 461.77 302.21 461.53
  Q 370.09 425.64 438.12 389.58
  Q 441.57 387.75 445.05 386.09
  A 0.48 0.48 0.0 0 1 445.74 386.52
  L 445.55 457.62
  A 1.27 1.26 -14.3 0 1 444.89 458.73
  L 303.37 536.02
  Q 302.84 536.31 302.83 536.91
  L 302.68 559.56
  A 0.77 0.77 0.0 0 0 303.82 560.24
  Q 346.27 537.43 386.10 515.24
  C 411.10 501.31 436.27 487.65 460.69 473.91
  Q 462.02 473.16 466.07 471.13
  Q 466.47 470.93 466.47 470.49
  L 466.52 349.96
  A 0.33 0.33 0.0 0 0 466.03 349.67
  Q 426.23 371.41 386.01 392.74
  Q 344.78 414.60 303.70 436.29
  C 303.22 436.55 302.72 437.07 302.25 437.38
  Q 301.79 437.68 301.35 437.35
  Q 299.42 435.83 297.11 434.59
  Q 253.12 410.92 203.10 385.49
  A 0.30 0.30 0.0 0 0 202.67 385.76
  L 202.49 457.73
  Q 202.49 458.34 203.02 458.62
  Q 243.49 480.28 281.19 500.57
  Q 291.13 505.92 301.05 511.56
  A 0.97 0.97 0.0 0 0 301.99 511.56
  L 361.15 479.01
  Q 361.64 478.74 361.64 478.18
  L 361.71 454.94
  A 0.35 0.35 0.0 0 0 361.19 454.63
  L 301.95 486.42
  Q 301.63 486.59 301.31 486.42
  L 224.57 445.05
  Q 224.06 444.78 224.06 444.21
  L 223.91 421.76
  Q 223.91 421.38 224.26 421.54
  Z
  M 118.76 434.95
  Q 118.76 433.21 120.28 434.05
  L 179.12 466.45
  A 0.49 0.48 -75.7 0 0 179.84 466.02
  L 179.56 441.12
  Q 179.55 440.59 179.12 440.29
  Q 174.10 436.79 168.48 433.79
  Q 133.71 415.28 99.26 396.95
  A 0.62 0.62 0.0 0 0 98.35 397.49
  L 98.26 447.23
  A 0.91 0.89 15.0 0 0 98.72 448.01
  L 118.03 458.94
  A 0.48 0.48 0.0 0 0 118.75 458.52
  L 118.76 434.95
  Z
  M 397.7043 460.7246
  A 14.73 13.95 94.5 0 0 412.7670 447.1345
  A 14.73 13.95 94.5 0 0 400.0157 431.3554
  A 14.73 13.95 94.5 0 0 384.9530 444.9455
  A 14.73 13.95 94.5 0 0 397.7043 460.7246
  Z
  M 189.90 475.88
  C 187.15 474.41 184.35 473.15 181.50 471.95
  Q 181.00 471.74 181.00 472.29
  L 181.01 494.78
  A 1.27 1.26 14.3 0 0 181.67 495.89
  Q 217.26 515.58 253.59 535.23
  C 258.38 537.82 264.53 535.34 266.93 530.86
  C 270.90 523.47 266.01 516.72 259.41 513.33
  Q 248.83 507.90 237.68 501.77
  Q 215.58 489.61 189.90 475.88
  Z"
/>
<circle fill="#000a0f" cx="194.32" cy="80.03" r="11.15"/>
<ellipse fill="#000a0f" cx="0.00" cy="0.00" transform="translate(469.17,100.83) rotate(-4.9)" rx="18.82" ry="18.47"/>
<circle fill="#000a0f" cx="141.09" cy="101.23" r="9.21"/>
<path fill="#fbfefb" d="
  M 350.40 158.47
  A 0.18 0.18 0.0 0 0 350.40 158.15
  L 327.05 145.53
  A 1.04 1.02 -43.2 0 0 326.11 145.51
  Q 313.87 151.34 302.47 158.04
  Q 302.02 158.31 301.57 158.05
  Q 281.26 146.17 260.32 135.18
  A 0.46 0.45 43.9 0 1 260.30 134.38
  L 303.06 110.53
  Q 303.50 110.28 303.96 110.52
  L 397.15 158.69
  Q 397.61 158.93 398.07 158.68
  L 419.33 147.21
  Q 419.79 146.95 420.27 147.20
  L 443.44 159.42
  A 0.43 0.43 0.0 0 1 443.42 160.20
  Q 438.57 162.38 433.55 165.13
  Q 415.36 175.06 397.32 184.28
  A 0.68 0.67 -43.7 0 1 396.69 184.27
  L 373.79 172.04
  A 2.64 2.64 0.0 0 0 371.31 172.04
  L 332.53 192.36
  Q 332.05 192.62 331.55 192.38
  Q 319.87 186.84 309.53 180.54
  A 0.31 0.31 0.0 0 1 309.58 179.99
  Q 312.55 178.84 315.46 177.26
  Q 333.33 167.61 350.40 158.47
  Z"
/>
<circle fill="#000a0f" cx="83.12" cy="134.36" r="12.12"/>
<ellipse fill="#000a0f" cx="0.00" cy="0.00" transform="translate(507.28,126.58) rotate(5.7)" rx="5.00" ry="4.45"/>
<circle fill="#000a0f" cx="545.31" cy="148.99" r="21.79"/>
<path fill="#fbfefb" d="
  M 156.63 218.87
  L 156.92 248.77
  Q 156.92 249.08 156.64 248.95
  Q 145.85 244.07 135.24 238.34
  Q 134.70 238.05 134.71 237.44
  L 134.84 207.57
  A 0.99 0.96 76.4 0 1 135.34 206.73
  L 241.23 148.88
  A 0.88 0.87 44.0 0 1 242.06 148.87
  L 262.32 159.67
  Q 263.09 160.08 263.81 159.58
  C 269.48 155.68 274.52 157.36 279.48 161.06
  C 289.20 168.31 287.89 183.54 276.22 188.14
  Q 272.67 189.53 268.61 189.15
  Q 257.51 188.09 254.89 176.21
  Q 254.76 175.63 254.21 175.40
  L 245.01 171.54
  A 2.34 2.34 0.0 0 0 242.98 171.64
  L 157.02 218.22
  Q 156.63 218.43 156.63 218.87
  Z"
/>
<ellipse fill="#000a0f" cx="0.00" cy="0.00" transform="translate(42.74,156.52) rotate(2.4)" rx="4.49" ry="4.27"/>
<path fill="#fbfefb" d="
  M 449.06 212.84
  C 445.24 210.82 441.53 208.47 437.61 206.62
  Q 429.09 202.59 422.09 198.24
  A 0.57 0.56 -41.9 0 1 422.15 197.25
  Q 432.89 192.18 441.98 186.60
  Q 442.74 186.14 443.55 186.50
  Q 453.24 190.93 462.46 195.92
  C 466.15 197.92 470.08 199.56 473.88 201.49
  Q 485.54 207.42 483.53 221.29
  C 482.35 229.50 477.29 235.41 468.85 236.57
  Q 460.73 237.68 454.82 232.70
  C 450.49 229.06 447.85 222.31 449.06 216.22
  Q 449.29 215.03 449.54 213.87
  Q 449.69 213.17 449.06 212.84
  Z"
/>
<path fill="#fbfefb" d="
  M 278.70 229.01
  Q 287.44 233.88 296.92 238.83
  Q 300.38 240.65 304.11 241.85
  A 0.42 0.42 0.0 0 1 304.17 242.63
  Q 279.73 254.97 252.97 269.09
  Q 250.87 270.20 248.78 270.96
  A 1.44 1.44 0.0 0 0 247.84 272.31
  L 247.80 358.49
  A 1.73 1.73 0.0 0 0 248.78 360.05
  Q 275.19 372.84 301.15 387.13
  Q 301.58 387.37 302.01 387.15
  L 340.34 367.51
  Q 341.47 366.93 341.46 365.67
  L 341.21 334.36
  A 0.98 0.98 0.0 0 1 341.73 333.48
  L 361.03 323.16
  A 0.50 0.49 -14.2 0 1 361.76 323.59
  L 361.67 380.02
  Q 361.67 380.61 361.15 380.89
  Q 336.81 393.68 312.20 406.64
  Q 307.24 409.24 302.18 411.58
  Q 301.72 411.80 301.24 411.64
  Q 299.48 411.05 297.64 410.06
  Q 267.06 393.60 233.53 376.20
  Q 229.87 374.30 226.63 371.92
  Q 226.27 371.66 226.27 371.22
  L 226.27 259.17
  A 2.17 2.17 0.0 0 1 227.39 257.27
  Q 245.27 247.33 263.20 238.78
  A 0.54 0.54 0.0 0 0 263.19 237.80
  Q 251.77 232.65 240.14 226.15
  Q 238.24 225.10 236.37 226.12
  Q 219.54 235.31 202.39 244.30
  A 0.51 0.50 -13.4 0 0 202.11 244.75
  Q 202.15 306.77 202.39 377.55
  Q 202.40 380.71 202.57 384.65
  A 0.25 0.25 0.0 0 1 202.20 384.88
  L 182.63 374.36
  Q 181.18 373.58 181.18 371.94
  L 181.25 231.74
  A 0.87 0.86 76.5 0 1 181.72 230.97
  C 187.57 228.06 193.28 224.82 199.08 221.92
  Q 217.03 212.94 233.82 204.33
  C 234.80 203.83 235.48 203.03 236.35 202.42
  C 238.51 200.92 239.55 202.83 241.23 203.69
  C 248.06 207.19 255.25 210.20 261.60 214.28
  Q 262.02 214.55 262.44 214.27
  Q 265.72 211.99 269.26 210.22
  Q 279.92 204.90 291.91 198.68
  Q 294.61 197.28 297.34 195.55
  A 0.94 0.93 46.6 0 1 298.40 195.58
  C 299.47 196.34 300.36 197.28 301.54 197.88
  Q 313.00 203.66 325.06 209.28
  A 1.61 1.60 42.8 0 0 326.49 209.23
  C 330.94 206.81 337.10 208.03 340.95 211.50
  Q 346.72 216.70 347.35 223.40
  C 347.61 226.19 346.96 228.67 346.06 231.23
  C 343.72 237.90 337.64 240.59 330.87 240.64
  C 321.89 240.72 315.90 235.53 315.28 226.23
  A 1.28 1.28 0.0 0 0 314.55 225.16
  L 300.22 218.43
  Q 299.29 218.00 298.38 218.46
  L 278.71 228.51
  A 0.28 0.28 0.0 0 0 278.70 229.01
  Z"
/>
<path fill="#fbfefb" d="
  M 384.12 225.38
  A 0.74 0.74 0.0 0 0 384.11 224.07
  L 351.29 207.41
  Q 350.65 207.09 351.28 206.75
  L 372.23 195.58
  A 2.15 2.12 -44.9 0 1 374.22 195.57
  L 428.60 223.84
  A 0.89 0.89 0.0 0 1 428.55 225.44
  Q 423.85 227.53 419.60 229.81
  Q 368.05 257.36 320.43 282.87
  Q 311.03 287.91 301.06 293.25
  Q 300.38 293.61 299.70 293.25
  L 277.71 281.54
  A 0.28 0.28 0.0 0 1 277.72 281.04
  Q 279.76 280.10 281.69 279.11
  Q 323.76 257.64 375.18 230.11
  Q 379.63 227.73 384.12 225.38
  Z"
/>
<circle fill="#000a0f" cx="570.78" cy="207.79" r="10.16"/>
<ellipse fill="#000a0f" cx="0.00" cy="0.00" transform="translate(27.75,217.31) rotate(5.9)" rx="18.11" ry="17.75"/>
<rect fill="#000a0f" x="-10.03" y="-9.96" transform="translate(567.10,258.12) rotate(9.8)" width="20.06" height="19.92" rx="9.05"/>
<path fill="#fbfefb" d="
  M 491.19 253.00
  C 490.44 253.85 489.93 254.57 489.94 255.78
  Q 490.00 333.51 489.95 355.75
  Q 489.94 359.99 489.40 366.47
  Q 489.30 320.85 489.28 275.25
  Q 489.27 265.25 489.39 255.25
  Q 489.41 253.43 491.19 253.00
  Z"
/>
<path fill="#fbfefb" d="
  M 466.15 287.38
  L 429.53 306.30
  A 0.30 0.30 0.0 0 1 429.09 306.03
  L 428.99 282.39
  A 0.30 0.30 0.0 0 1 429.15 282.13
  L 466.18 262.95
  A 0.30 0.30 0.0 0 1 466.61 263.22
  L 466.31 287.12
  A 0.30 0.30 0.0 0 1 466.15 287.38
  Z"
/>
<circle fill="#000a0f" cx="39.08" cy="278.48" r="10.06"/>
<path fill="#fbfefb" d="
  M 100.37 295.31
  C 109.78 299.98 119.07 304.80 128.38 309.70
  C 137.19 314.33 146.46 318.70 155.12 323.57
  C 159.20 325.86 161.74 330.65 161.27 335.42
  Q 160.43 344.04 151.51 346.01
  Q 148.82 346.61 146.08 345.16
  Q 121.93 332.31 98.99 319.71
  A 1.07 1.06 -76.0 0 1 98.43 318.77
  L 98.50 295.04
  Q 98.50 294.56 98.95 294.71
  Q 99.62 294.94 100.37 295.31
  Z"
/>
<path fill="#fbfefb" d="
  M 406.21 296.40
  L 406.15 359.38
  A 0.34 0.34 0.0 0 1 405.96 359.68
  L 385.99 369.60
  A 0.34 0.34 0.0 0 1 385.50 369.29
  L 385.45 306.68
  A 0.34 0.34 0.0 0 1 385.64 306.38
  L 405.71 296.09
  A 0.34 0.34 0.0 0 1 406.21 296.40
  Z"
/>
<path fill="#fbfefb" d="
  M 532.83 352.02
  Q 533.38 351.35 534.29 350.87
  Q 534.73 350.65 534.91 350.18
  Q 535.39 348.93 535.38 348.00
  Q 535.25 332.39 535.11 316.78
  Q 535.11 316.68 535.37 310.75
  Q 535.51 307.60 534.97 304.37
  Q 535.13 304.23 535.50 304.83
  Q 535.68 305.11 535.69 305.47
  Q 536.53 332.59 535.90 348.63
  Q 535.81 350.87 532.83 352.02
  Z"
/>
<path fill="#000a0f" d="
  M 534.97 304.37
  Q 535.51 307.60 535.37 310.75
  Q 535.11 316.68 535.11 316.78
  Q 535.25 332.39 535.38 348.00
  Q 535.39 348.93 534.91 350.18
  Q 534.73 350.65 534.29 350.87
  Q 533.38 351.35 532.83 352.02
  Q 523.64 357.78 513.53 361.87
  Q 513.03 362.07 512.68 362.48
  Q 512.31 362.92 511.79 362.96
  Q 511.17 363.02 511.09 362.40
  Q 510.80 360.33 510.79 358.22
  Q 510.63 338.41 511.05 317.29
  A 2.24 2.24 0.0 0 1 512.30 315.33
  L 534.97 304.37
  Z"
/>
<circle fill="#000a0f" cx="574.64" cy="319.03" r="13.28"/>
<path fill="#000a0f" d="
  M 0.00 327.26
  L 0.00 323.17
  Q 2.40 312.51 13.00 311.06
  C 22.27 309.79 28.87 318.98 28.26 327.56
  C 27.95 331.95 25.31 334.86 22.03 337.37
  Q 20.06 338.87 17.09 339.08
  Q 12.26 339.42 9.78 338.73
  Q 1.28 336.34 0.00 327.26
  Z"
/>
<ellipse fill="#fbfefb" cx="0.00" cy="0.00" transform="translate(440.99,327.97) rotate(102.7)" rx="13.01" ry="12.63"/>
<path fill="#fbfefb" d="
  M 223.91 421.76
  L 224.06 444.21
  Q 224.06 444.78 224.57 445.05
  L 301.31 486.42
  Q 301.63 486.59 301.95 486.42
  L 361.19 454.63
  A 0.35 0.35 0.0 0 1 361.71 454.94
  L 361.64 478.18
  Q 361.64 478.74 361.15 479.01
  L 301.99 511.56
  A 0.97 0.97 0.0 0 1 301.05 511.56
  Q 291.13 505.92 281.19 500.57
  Q 243.49 480.28 203.02 458.62
  Q 202.49 458.34 202.49 457.73
  L 202.67 385.76
  A 0.30 0.30 0.0 0 1 203.10 385.49
  Q 253.12 410.92 297.11 434.59
  Q 299.42 435.83 301.35 437.35
  Q 301.79 437.68 302.25 437.38
  C 302.72 437.07 303.22 436.55 303.70 436.29
  Q 344.78 414.60 386.01 392.74
  Q 426.23 371.41 466.03 349.67
  A 0.33 0.33 0.0 0 1 466.52 349.96
  L 466.47 470.49
  Q 466.47 470.93 466.07 471.13
  Q 462.02 473.16 460.69 473.91
  C 436.27 487.65 411.10 501.31 386.10 515.24
  Q 346.27 537.43 303.82 560.24
  A 0.77 0.77 0.0 0 1 302.68 559.56
  L 302.83 536.91
  Q 302.84 536.31 303.37 536.02
  L 444.89 458.73
  A 1.27 1.26 -14.3 0 0 445.55 457.62
  L 445.74 386.52
  A 0.48 0.48 0.0 0 0 445.05 386.09
  Q 441.57 387.75 438.12 389.58
  Q 370.09 425.64 302.21 461.53
  Q 301.76 461.77 301.29 461.59
  Q 298.73 460.62 296.18 459.27
  Q 267.74 444.21 237.31 428.13
  Q 230.45 424.50 224.26 421.54
  Q 223.91 421.38 223.91 421.76
  Z"
/>
<ellipse fill="#000a0f" cx="0.00" cy="0.00" transform="translate(569.57,371.29) rotate(105.2)" rx="12.24" ry="11.72"/>
<ellipse fill="#000a0f" cx="0.00" cy="0.00" transform="translate(40.40,372.11) rotate(81.0)" rx="10.13" ry="9.62"/>
<path fill="#fbfefb" d="
  M 535.42 389.96
  L 535.35 377.09
  Q 535.35 376.57 534.85 376.42
  Q 534.34 376.26 533.47 376.36
  L 534.98 376.11
  Q 535.96 375.95 535.92 376.94
  L 535.42 389.96
  Z"
/>
<path fill="#fbfefb" d="
  M 118.76 434.95
  L 118.75 458.52
  A 0.48 0.48 0.0 0 1 118.03 458.94
  L 98.72 448.01
  A 0.91 0.89 15.0 0 1 98.26 447.23
  L 98.35 397.49
  A 0.62 0.62 0.0 0 1 99.26 396.95
  Q 133.71 415.28 168.48 433.79
  Q 174.10 436.79 179.12 440.29
  Q 179.55 440.59 179.56 441.12
  L 179.84 466.02
  A 0.49 0.48 -75.7 0 1 179.12 466.45
  L 120.28 434.05
  Q 118.76 433.21 118.76 434.95
  Z"
/>
<ellipse fill="#000a0f" cx="0.00" cy="0.00" transform="translate(24.77,421.99) rotate(-11.3)" rx="17.36" ry="17.14"/>
<path fill="#000a0f" d="
  M 592.00 426.13
  L 592.00 429.79
  Q 588.53 443.37 574.21 440.63
  Q 573.21 440.44 570.27 437.77
  C 566.59 434.43 564.98 428.80 566.72 424.43
  C 571.63 412.11 588.67 413.45 592.00 426.13
  Z"
/>
<path fill="#fbfefb" d="
  M 489.42 426.03
  Q 489.94 431.29 489.95 433.75
  Q 490.08 458.76 489.81 484.02
  L 489.42 426.03
  Z"
/>
<ellipse fill="#fbfefb" cx="0.00" cy="0.00" transform="translate(398.86,446.04) rotate(94.5)" rx="14.73" ry="13.95"/>
<path fill="#fbfefb" d="
  M 535.49 442.52
  Q 536.41 456.50 535.88 468.25
  Q 535.81 469.75 535.01 470.69
  L 535.49 442.52
  Z"
/>
<circle fill="#000a0f" cx="41.74" cy="480.62" r="8.96"/>
<path fill="#fbfefb" d="
  M 181.50 471.95
  C 184.35 473.15 187.15 474.41 189.90 475.88
  Q 215.58 489.61 237.68 501.77
  Q 248.83 507.90 259.41 513.33
  C 266.01 516.72 270.90 523.47 266.93 530.86
  C 264.53 535.34 258.38 537.82 253.59 535.23
  Q 217.26 515.58 181.67 495.89
  A 1.27 1.26 14.3 0 1 181.01 494.78
  L 181.00 472.29
  Q 181.00 471.74 181.50 471.95
  Z"
/>
<circle fill="#000a0f" cx="564.52" cy="478.58" r="5.61"/>
<ellipse fill="#000a0f" cx="0.00" cy="0.00" transform="translate(83.13,527.91) rotate(2.9)" rx="11.81" ry="11.51"/>
<ellipse fill="#000a0f" cx="0.00" cy="0.00" transform="translate(523.47,528.13) rotate(80.7)" rx="10.97" ry="10.49"/>
<ellipse fill="#000a0f" cx="0.00" cy="0.00" transform="translate(136.13,557.53) rotate(-11.0)" rx="16.92" ry="16.60"/>
<path fill="#000a0f" d="
  M 483.93 564.41
  L 481.72 568.72
  A 16.04 15.79 0.9 0 1 467.98 575.29
  A 16.03 15.80 3.6 0 1 454.93 567.65
  A 16.03 15.77 1.1 0 1 454.80 551.58
  A 16.09 15.90 5.3 0 1 457.35 548.33
  A 16.03 15.77 2.1 0 1 469.50 543.76
  A 16.02 15.75 0.9 0 1 482.70 551.87
  A 16.03 15.77 2.2 0 1 483.93 564.41
  Z"
/>
<path fill="#fbfefb" d="
  M 483.93 564.41
  A 15.68 15.50 15.6 0 1 481.72 568.72
  L 483.93 564.41
  Z"
/>
<circle fill="#000a0f" cx="192.10" cy="583.72" r="12.13"/>
<ellipse fill="#000a0f" cx="0.00" cy="0.00" transform="translate(405.29,580.89) rotate(91.8)" rx="7.44" ry="7.33"/>
<circle fill="#000a0f" cx="237.83" cy="612.82" r="8.86"/>
<ellipse fill="#000a0f" cx="0.00" cy="0.00" transform="translate(368.69,613.50) rotate(83.5)" rx="9.65" ry="9.42"/>
<path fill="#000a0f" d="
  M 303.45 664.00
  L 302.40 664.00
  Q 295.00 661.78 295.94 655.26
  Q 296.33 652.55 298.13 651.22
  C 300.90 649.15 305.75 649.51 308.13 651.83
  Q 309.99 653.64 310.11 656.79
  Q 310.31 661.99 303.45 664.00
  Z"
/>
</svg>
