<?xml version="1.0" standalone="no"?>
<!DOCTYPE svg PUBLIC "-//W3C//DTD SVG 20010904//EN"
 "http://www.w3.org/TR/2001/REC-SVG-20010904/DTD/svg10.dtd">
<svg version="1.0" xmlns="http://www.w3.org/2000/svg"
 width="664.000000pt" height="664.000000pt" viewBox="0 0 664.000000 664.000000"
 preserveAspectRatio="xMidYMid meet">
<metadata>
Created by potrace 1.14, written by Peter Selinger 2001-2017
</metadata>
<g transform="translate(0.000000,664.000000) scale(0.100000,-0.100000)"
fill="#000000" stroke="none">
<path d="M3323 6618 c-40 -45 -35 -112 12 -142 37 -24 73 -20 106 13 61 62 21
151 -69 151 -17 0 -37 -9 -49 -22z"/>
<path d="M2665 6392 c-104 -49 -137 -170 -70 -258 35 -45 80 -68 136 -67 60 1
103 24 137 75 91 138 -56 318 -203 250z"/>
<path d="M3921 6314 c-35 -25 -50 -70 -39 -113 31 -120 188 -100 188 24 0 38
-5 52 -29 76 -34 34 -83 39 -120 13z"/>
<path d="M4404 6016 c-130 -58 -92 -256 49 -256 98 0 158 87 121 179 -28 71
-105 106 -170 77z"/>
<path d="M3355 6011 c-6 -4 -88 -50 -183 -100 -95 -50 -191 -102 -215 -115
-46 -26 -597 -327 -857 -469 -91 -49 -280 -151 -420 -226 -140 -76 -333 -180
-427 -231 l-173 -95 0 -221 0 -222 267 -138 c148 -77 339 -175 425 -219 l158
-80 0 -123 0 -124 -187 98 c-104 53 -201 105 -218 114 -16 9 -100 52 -185 95
-85 43 -177 91 -203 107 -26 15 -50 28 -52 28 -3 0 -5 -170 -5 -379 0 -291 3
-381 13 -388 6 -6 66 -38 132 -73 66 -34 229 -121 361 -191 133 -71 249 -129
259 -129 28 0 78 -36 98 -69 23 -40 24 -98 2 -144 -22 -46 -91 -82 -138 -73
-52 10 -105 52 -115 88 -7 30 -21 40 -172 118 -91 47 -227 117 -302 156 -75
40 -138 71 -140 69 -2 -2 -1 -263 2 -581 l5 -577 340 -189 c187 -104 525 -294
750 -422 226 -128 545 -308 710 -400 165 -91 345 -192 400 -225 55 -32 105
-55 110 -51 6 4 71 41 145 83 74 41 272 152 440 247 168 95 427 240 575 322
234 131 541 304 684 385 24 14 96 53 160 88 151 80 205 111 266 150 l50 33 0
471 c0 259 -3 471 -8 471 -4 0 -59 -28 -122 -62 l-115 -62 0 -421 0 -420 -97
-55 c-53 -30 -99 -56 -103 -58 -12 -5 -19 944 -12 1638 l7 665 95 52 c52 28
98 52 103 52 4 1 7 -107 7 -239 0 -132 3 -240 8 -240 4 0 57 26 117 58 l110
59 0 468 0 468 -125 67 c-69 36 -251 133 -405 214 -258 137 -667 355 -995 531
-74 40 -173 93 -220 117 -47 25 -196 104 -332 177 -136 72 -251 131 -256 131
-4 0 -12 -4 -17 -9z"/>
<path d="M2230 5922 c-97 -98 19 -244 137 -172 90 54 40 200 -69 200 -30 0
-46 -7 -68 -28z"/>
<path d="M4973 5795 c-181 -84 -120 -345 81 -345 56 0 117 28 143 67 46 68 54
118 28 181 -44 104 -150 145 -252 97z"/>
<path d="M1709 5691 c-32 -33 -37 -67 -14 -110 17 -33 33 -41 85 -41 75 0 106
87 54 149 -35 42 -84 43 -125 2z"/>
<path d="M1145 5406 c-43 -19 -66 -49 -72 -94 -15 -113 121 -180 203 -98 29
29 34 41 34 79 0 50 -24 88 -70 112 -35 18 -56 18 -95 1z"/>
<path d="M5397 5402 c-22 -24 -21 -35 1 -55 36 -32 82 -15 82 30 0 40 -55 56
-83 25z"/>
<path d="M5724 5346 c-84 -40 -124 -103 -124 -196 0 -93 40 -156 125 -196 83
-40 155 -28 228 36 57 50 81 110 75 180 -14 147 -171 238 -304 176z"/>
<path d="M757 5102 c-22 -24 -21 -35 3 -57 17 -15 24 -16 45 -7 31 14 34 56 6
72 -27 14 -35 13 -54 -8z"/>
<path d="M6043 4662 c-36 -5 -73 -58 -73 -102 0 -53 32 -90 86 -97 33 -4 45
-1 72 22 39 33 50 80 28 123 -9 17 -21 34 -26 37 -19 12 -65 21 -87 17z"/>
<path d="M590 4637 c-135 -34 -175 -201 -73 -299 55 -52 128 -62 201 -27 81
40 119 131 88 214 -15 38 -73 104 -94 105 -4 1 -25 4 -47 9 -22 4 -56 3 -75
-2z"/>
<path d="M5977 4144 c-54 -29 -64 -109 -18 -155 42 -41 101 -41 142 1 26 26
30 36 27 77 -3 41 -7 50 -37 70 -39 26 -74 29 -114 7z"/>
<path d="M710 3942 c-49 -24 -67 -60 -55 -108 30 -117 195 -95 195 26 0 37
-21 65 -67 89 -28 14 -32 14 -73 -7z"/>
<path d="M5588 3539 l-118 -59 0 -235 c0 -129 2 -235 3 -235 9 0 171 82 207
105 l40 25 0 225 c0 123 -3 226 -7 228 -5 3 -61 -22 -125 -54z"/>
<path d="M6038 3564 c-80 -43 -79 -187 2 -229 125 -64 250 74 173 192 -33 50
-118 68 -175 37z"/>
<path d="M440 3513 c-47 -24 -80 -76 -80 -125 0 -84 59 -138 150 -138 48 0 56
4 91 39 34 34 39 44 39 85 0 117 -104 189 -200 139z"/>
<path d="M6014 3040 c-36 -14 -74 -69 -74 -105 0 -80 40 -125 113 -125 42 0
54 5 83 34 28 28 34 42 34 75 0 95 -76 154 -156 121z"/>
<path d="M699 2991 c-86 -86 29 -225 124 -151 52 41 44 136 -14 165 -43 23
-77 18 -110 -14z"/>
<path d="M555 2583 c-32 -8 -84 -51 -101 -85 -21 -41 -22 -115 -1 -155 63
-120 241 -122 304 -3 73 137 -47 281 -202 243z"/>
<path d="M6082 2461 c-73 -46 -80 -137 -15 -198 115 -109 287 68 174 180 -39
40 -111 48 -159 18z"/>
<path d="M715 1895 c-43 -42 -31 -111 25 -140 39 -20 73 -11 106 28 69 82 -55
189 -131 112z"/>
<path d="M5967 1892 c-34 -37 -11 -92 38 -92 50 0 73 60 37 93 -24 22 -55 21
-75 -1z"/>
<path d="M1156 1470 c-39 -12 -64 -37 -75 -76 -13 -47 3 -99 38 -124 35 -24
107 -27 139 -4 27 19 52 65 52 96 0 36 -37 88 -75 104 -38 16 -39 16 -79 4z"/>
<path d="M5555 1461 c-40 -17 -60 -51 -60 -103 0 -43 4 -53 33 -79 42 -38 89
-39 131 -3 61 51 48 150 -24 180 -38 16 -51 16 -80 5z"/>
<path d="M1644 1210 c-47 -23 -94 -97 -94 -147 0 -82 87 -163 174 -163 85 1
166 81 166 165 0 17 -10 51 -22 75 -42 82 -138 112 -224 70z"/>
<path d="M4970 1181 c-57 -30 -75 -63 -75 -136 0 -73 19 -108 76 -138 44 -23
129 -19 166 9 48 36 67 70 67 122 0 124 -126 201 -234 143z"/>
<path d="M2207 900 c-56 -44 -59 -139 -7 -184 60 -50 120 -46 170 11 29 33 32
41 27 87 -4 42 -10 55 -38 78 -42 35 -112 39 -152 8z"/>
<path d="M4385 898 c-72 -41 -51 -138 29 -138 68 0 95 81 42 127 -30 26 -42
28 -71 11z"/>
<path d="M2676 569 c-42 -50 -32 -105 25 -134 68 -36 143 28 119 101 -23 69
-99 87 -144 33z"/>
<path d="M3997 589 c-11 -6 -25 -27 -33 -46 -41 -97 73 -178 147 -104 21 22
29 39 29 66 0 70 -83 119 -143 84z"/>
<path d="M3337 122 c-26 -29 -22 -77 9 -101 15 -12 34 -21 44 -21 10 0 29 9
44 21 52 41 21 119 -47 119 -20 0 -41 -8 -50 -18z"/>
</g>
</svg>
