<?xml version="1.0" standalone="no"?>
<!DOCTYPE svg PUBLIC "-//W3C//DTD SVG 20010904//EN"
 "http://www.w3.org/TR/2001/REC-SVG-20010904/DTD/svg10.dtd">
<svg version="1.0" xmlns="http://www.w3.org/2000/svg"
 width="860.000000pt" height="860.000000pt" viewBox="0 0 860.000000 860.000000"
 preserveAspectRatio="xMidYMid meet">
<metadata>
Created by potrace 1.14, written by Peter Selinger 2001-2017
</metadata>
<g transform="translate(0.000000,860.000000) scale(0.100000,-0.100000)"
fill="#000000" stroke="none">
<path d="M4160 7009 c-74 -16 -153 -32 -175 -35 -22 -3 -48 -10 -57 -15 -10
-6 -18 -8 -18 -5 0 2 -17 0 -37 -5 -21 -5 -54 -12 -73 -15 -19 -3 -84 -16
-145 -29 -60 -13 -123 -26 -140 -29 -16 -3 -64 -13 -105 -21 -132 -26 -234
-47 -260 -52 -14 -2 -45 -9 -70 -14 -25 -6 -56 -13 -70 -15 -14 -2 -36 -7 -50
-10 -14 -3 -38 -8 -55 -11 -16 -2 -48 -9 -70 -15 -22 -6 -51 -12 -65 -13 -14
-2 -101 -20 -195 -39 -93 -20 -183 -38 -200 -41 -16 -2 -52 -9 -80 -15 -27 -7
-60 -14 -72 -16 -13 -2 -34 -6 -48 -9 -14 -3 -37 -7 -52 -10 -16 -3 -57 -12
-93 -20 -36 -8 -78 -16 -95 -19 -16 -3 -75 -15 -130 -26 -55 -12 -113 -24
-130 -26 -16 -3 -45 -9 -64 -14 -19 -5 -38 -7 -42 -4 -4 2 -10 1 -13 -4 -2 -4
-24 -9 -48 -10 -61 -4 -75 -10 -81 -35 -3 -12 -4 -134 -4 -272 l2 -250 25 -11
c14 -7 43 -15 65 -18 22 -3 47 -7 55 -9 8 -2 38 -7 65 -12 53 -8 85 -21 98
-39 4 -6 7 -365 6 -797 -1 -859 -2 -834 57 -876 49 -34 102 -42 156 -24 48 17
89 51 192 164 81 90 182 138 324 155 85 10 138 6 210 -15 188 -54 280 -137
434 -394 58 -96 74 -115 121 -145 81 -52 190 -61 273 -23 63 30 108 81 184
209 89 151 157 218 290 292 43 24 101 46 138 53 9 2 17 4 17 5 0 1 9 3 20 5
110 21 196 21 274 0 28 -7 52 -13 54 -13 30 -2 156 -69 207 -111 83 -67 102
-91 225 -279 96 -148 162 -191 283 -186 132 7 208 66 292 229 35 67 51 94 75
124 52 66 142 143 200 171 17 8 32 18 35 21 8 9 142 48 190 55 56 8 187 7 200
-1 6 -4 23 -9 38 -11 84 -16 177 -78 298 -199 83 -84 124 -111 164 -110 63 3
109 19 136 44 35 35 57 61 50 61 -3 0 1 15 9 34 12 29 15 156 16 773 0 406 0
751 0 766 -1 23 5 30 35 43 20 8 39 13 41 10 3 -3 13 -1 22 3 9 5 36 12 61 15
75 11 123 24 130 36 4 7 7 77 6 156 0 79 3 144 7 144 5 0 5 5 1 11 -3 6 -6 37
-5 70 1 32 1 67 1 77 0 9 0 34 0 55 0 30 -5 39 -23 46 -12 5 -27 6 -33 4 -7
-2 -15 0 -18 6 -4 6 -13 8 -20 5 -8 -3 -31 -1 -52 5 -22 5 -55 12 -74 15 -19
3 -138 26 -265 51 -126 26 -241 48 -255 51 -14 3 -59 12 -100 20 -95 20 -91
19 -240 49 -140 28 -130 26 -260 55 -109 24 -130 28 -167 36 -16 3 -68 14
-118 25 -49 11 -99 22 -110 24 -11 1 -95 19 -187 39 -92 19 -178 38 -190 40
-13 3 -34 7 -48 11 -14 3 -38 7 -55 10 -25 4 -163 32 -255 51 -14 3 -34 7 -45
9 -11 2 -30 6 -41 8 -12 3 -37 8 -55 11 -36 6 -116 21 -159 31 -69 15 -142 11
-270 -16z"/>
<path d="M705 5277 c-8 -4 -15 -5 -15 -2 0 3 -18 -4 -40 -15 -82 -42 -113
-134 -112 -330 0 -74 3 -162 7 -195 5 -56 17 -251 16 -285 0 -8 -1 -43 -1 -77
l-1 -63 -269 0 -268 0 -4 -182 c-2 -101 -6 -190 -8 -198 -4 -13 29 -15 254
-18 160 -1 264 -6 272 -13 9 -7 11 -39 6 -127 -8 -149 -8 -486 0 -622 4 -60
13 -121 22 -142 19 -45 73 -108 92 -108 8 0 14 -4 14 -8 0 -5 6 -9 13 -10 6
-1 35 -4 63 -8 94 -12 200 62 224 156 8 31 12 175 11 457 0 248 4 415 9 418
16 10 128 7 163 -4 21 -7 41 -25 57 -51 14 -22 28 -40 32 -40 5 0 8 -7 8 -15
0 -8 3 -15 8 -15 4 0 15 -15 25 -33 31 -57 157 -180 232 -224 48 -29 127 -64
157 -70 73 -13 68 35 68 -665 l0 -629 33 -14 c17 -7 46 -16 62 -19 17 -3 62
-12 100 -21 39 -9 78 -18 88 -20 10 -2 26 -6 35 -9 9 -3 28 -7 42 -10 62 -12
76 -15 185 -42 17 -4 37 -9 45 -10 8 -1 35 -7 60 -14 25 -7 56 -14 70 -16 14
-3 33 -7 42 -10 9 -3 25 -7 35 -9 41 -8 544 -126 555 -130 7 -2 24 -6 38 -9
14 -2 45 -9 70 -16 25 -7 53 -14 63 -16 9 -1 88 -19 175 -39 86 -21 164 -38
172 -40 18 -4 190 -45 360 -87 69 -16 134 -31 145 -33 11 -1 20 -3 20 -4 0 -2
11 -4 25 -7 14 -2 51 -11 83 -19 79 -20 102 -19 220 11 56 14 113 28 126 30
14 3 28 7 31 9 4 2 22 7 41 10 19 3 79 17 134 31 55 14 111 28 125 31 23 4
154 35 360 84 47 12 96 23 110 26 14 2 50 10 80 18 30 8 69 17 87 20 18 3 43
9 57 15 15 5 26 7 26 4 0 -4 7 -1 15 6 8 7 15 10 15 7 0 -3 26 2 58 10 31 8
64 16 72 18 8 2 42 10 75 19 33 8 75 18 94 21 19 3 37 8 41 10 3 2 17 6 31 8
13 3 65 15 114 27 50 12 99 23 110 26 11 2 29 6 40 8 11 2 105 25 210 50 104
26 201 49 215 51 14 3 36 7 50 10 14 3 41 8 60 11 19 4 41 11 48 17 9 7 12
145 12 628 0 352 4 628 9 642 7 17 24 29 58 40 46 15 104 41 168 74 45 24 155
139 205 216 24 37 48 67 53 67 4 0 6 4 3 9 -3 5 12 25 34 45 30 27 49 36 78
37 63 2 95 -2 106 -14 8 -8 11 -141 11 -422 0 -225 3 -422 7 -436 24 -99 96
-163 186 -166 123 -3 214 67 237 182 4 22 7 492 3 570 0 6 0 42 1 80 1 39 1
97 2 129 0 33 2 63 5 68 3 4 124 8 270 8 l264 0 0 186 c0 166 -2 188 -17 200
-14 10 -76 13 -270 14 l-252 0 -3 96 c-2 53 0 101 3 106 4 6 3 22 0 37 -4 14
-4 41 0 59 4 17 3 32 -1 32 -5 0 -5 13 0 29 4 16 6 31 4 33 -2 3 -6 94 -8 204
-2 109 -6 206 -8 214 -23 75 -83 139 -146 158 -117 35 -231 -17 -261 -120 -19
-62 -21 -107 -21 -485 l0 -363 -48 -1 c-64 -1 -150 -10 -224 -24 -40 -8 -91
-40 -124 -79 -34 -39 -45 -58 -95 -158 -59 -119 -156 -231 -235 -271 -66 -33
-117 -46 -195 -49 -173 -5 -257 42 -445 254 -71 79 -205 111 -294 69 -87 -41
-146 -113 -200 -241 -26 -63 -93 -161 -140 -208 -158 -154 -463 -194 -689 -89
-67 30 -151 89 -190 132 -39 43 -131 174 -131 187 0 4 -14 31 -32 60 -89 148
-233 211 -378 167 -97 -30 -155 -81 -210 -184 -84 -157 -208 -315 -247 -315
-7 0 -13 -4 -13 -9 0 -11 -95 -56 -151 -71 -73 -20 -81 -21 -159 -24 -63 -2
-97 2 -188 23 -4 1 -18 4 -32 8 -66 15 -175 79 -229 133 -31 32 -61 64 -67 71
-21 29 -84 129 -84 137 0 4 -17 36 -38 71 -78 135 -202 197 -316 158 -25 -9
-53 -21 -62 -29 -33 -26 -90 -87 -119 -127 -38 -53 -128 -116 -208 -145 -52
-20 -77 -23 -157 -21 -139 5 -206 32 -298 123 -53 51 -132 167 -132 193 0 5
-3 9 -7 9 -5 0 -21 24 -36 54 -15 29 -42 68 -59 85 -35 35 -88 76 -88 66 0 -3
-10 1 -22 9 -35 22 -135 39 -216 37 -52 -1 -74 2 -77 11 -3 8 -6 196 -8 419
l-2 405 -25 37 c-25 37 -89 86 -119 92 -9 2 -16 4 -16 5 0 7 -98 4 -110 -3z"/>
</g>
</svg>
